<svg width="1000" height="667" viewBox="0 0 1000 667" fill="none" xmlns="http://www.w3.org/2000/svg">
<path d="M88.625 564.659C36.8708 493.46 19.4396 398.644 41.5849 313.454C63.7302 228.264 124.764 154.2 203.743 115.339C282.721 76.479 378.213 73.2164 460.012 105.724C501.665 122.278 544.388 145.011 582.751 167.707C621.013 190.344 666.627 194.564 710.149 195.982C758.748 197.566 809.085 196.718 853.628 216.218C916.261 243.639 957.379 309.939 963.025 378.079C968.672 446.218 941.973 514.632 898.657 567.534L88.625 564.659Z" fill="#FCD0D1"/>
<path d="M316.83 339.109H233.304V234.807H316.83V339.109Z" fill="#FDE3E2"/>
<path d="M423.929 339.109H340.402V234.807H423.929V339.109" fill="#FDE3E2"/>
<path d="M316.83 457.351H233.304V353.048H316.83V457.351Z" fill="#FDE3E2"/>
<path d="M423.929 457.351H340.402V353.048H423.929V457.351" fill="#FDE3E2"/>
<path d="M680.662 332.14H597.136V227.837H680.662V332.14Z" fill="#FDE3E2"/>
<path d="M787.761 332.14H704.234V227.837H787.761V332.14Z" fill="#FDE3E2"/>
<path d="M680.662 450.382H597.136V346.079H680.662V450.382" fill="#FDE3E2"/>
<path d="M787.761 450.382H704.234V346.079H787.761V450.382" fill="#FDE3E2"/>
<path d="M459.22 194.412H193.728V159.688H459.22V194.412Z" fill="#FDE3E2"/>
<path d="M116.442 257.619C113.342 262.888 110.981 268.589 109.503 274.524C104.741 293.648 108.839 314.463 102.104 332.985C98.9134 341.76 93.4629 349.492 88.4285 357.356C83.3941 365.219 78.6368 373.548 77.1154 382.76C76.2206 388.177 76.6108 393.921 78.5889 399.067C80.7472 404.681 84.0946 407.085 88.7342 410.345C98.6066 417.281 110.35 421.096 122.162 423.557C159.31 431.3 199.012 426.181 232.982 409.272C239.52 406.019 245.932 402.28 251.069 397.089C256.205 391.9 260 385.085 260.372 377.793C260.878 367.859 255.153 358.731 248.977 350.932C245.842 346.972 242.858 342.491 239.381 338.845C236.605 335.935 234.577 333.577 233.166 329.621C230.386 321.825 230.758 313.089 232.701 305.145C235.456 293.881 241.045 283.527 244.686 272.517C248.328 261.508 249.869 248.983 244.622 238.643C240.497 230.513 232.589 224.764 224.021 221.651C215.453 218.539 206.209 217.812 197.094 217.689C184.024 217.513 165.457 218.083 160.488 232.859C154.561 228.264 145.868 230.739 139.401 234.536C129.937 240.092 122.002 248.163 116.442 257.619" fill="#040606"/>
<path d="M297.956 482.179C287.838 479.467 278.213 474.024 269.073 468.652C256.02 460.979 242.538 452.754 234.454 439.952C228.434 430.42 226.013 419.207 224.848 408.131C223.906 399.203 221.641 385.95 225.77 377.532C244.762 385.808 260.012 400.614 274.812 415.11C278.677 418.896 282.568 422.659 286.409 426.47C288.882 428.924 291.114 432.095 293.922 434.164C296.829 436.306 297.376 435.238 297.849 431.975C298.604 426.78 298.881 421.468 299.394 416.243C301.477 395.046 303.56 373.848 305.641 352.651C305.677 352.299 326.958 352.176 328.713 353.222C330.226 370.612 331.738 388.003 333.251 405.394C334.378 418.335 335.5 431.307 335.398 444.311C335.348 450.776 334.998 457.246 334.188 463.664C333.505 469.063 333.774 473.226 329.709 477.303C325.348 481.675 319.006 483.566 312.838 483.887C307.765 484.151 302.804 483.479 297.956 482.179" fill="#F8A272"/>
<path d="M284.399 449.466C286.761 452.966 289.715 456.374 293.733 457.668C293.733 456.12 294.948 454.323 295.178 452.744C295.34 451.642 295.142 450.663 295.183 449.575C295.313 446.116 296.674 442.48 297.478 439.119C297.805 437.75 298.109 436.212 297.373 435.012C296.856 434.168 295.93 433.683 295.066 433.202C290.853 430.859 287.762 427.716 284.331 424.43C283.231 423.376 273.946 415.822 274.277 414.772C272.713 419.739 275.092 427.738 276.508 432.592C278.254 438.576 280.913 444.296 284.399 449.466Z" fill="#E16646"/>
<path d="M274.126 415.793C274.888 415.061 275.606 414.259 275.792 413.239C276.075 411.701 275.062 410.251 274.058 409.053C271.054 405.469 267.616 402.252 263.843 399.491C263.11 398.955 262.336 398.423 261.448 398.237C259.451 397.82 257.543 399.919 256.204 401.104C254.148 402.924 252.196 404.875 250.474 407.015C247.951 410.151 246.059 414.073 243.94 417.5C243.576 418.091 243.204 418.699 243.08 419.381C242.911 420.32 243.228 421.271 243.543 422.172C246.414 430.413 249.283 438.655 252.154 446.897C252.266 447.219 252.415 447.579 252.736 447.692C253.246 447.871 253.688 447.309 253.938 446.829C259.563 436.028 264.695 424.575 273.61 416.277C273.78 416.119 273.954 415.957 274.126 415.793" fill="#345D7D"/>
<path d="M337.464 343.679C335.839 347.367 333.675 350.924 330.515 353.425C327.354 355.925 323.064 357.236 319.191 356.12C317.931 355.757 316.742 355.152 315.454 354.908C313.559 354.548 311.595 355.051 309.751 354.444C308.15 353.919 306.384 353.927 304.842 353.183C302.636 352.119 301.266 349.888 300.128 347.72C298.991 345.551 297.896 343.241 295.951 341.756C294.16 340.389 291.743 339.801 290.391 338.001C289.395 336.673 289.163 334.907 288.243 333.524C286.295 330.601 282.087 330.337 279.3 328.199C278.232 327.38 277.336 325.961 277.903 324.74C278.439 323.585 279.934 323.303 281.207 323.271C286.044 323.148 290.91 324.527 294.964 327.169C296.103 327.911 297.347 328.792 298.686 328.559C299.882 328.351 300.746 327.3 301.308 326.225C301.871 325.151 302.259 323.963 303.052 323.044C304.11 321.817 305.77 321.24 307.387 321.151C309.074 321.059 310.55 321.609 312.172 321.815C313.587 321.995 315.264 321.327 316.68 321.089C319.994 320.537 323.351 320.257 326.71 320.257C330.635 320.257 335.038 320.368 338.815 321.537C342.311 322.621 341.55 326.349 341.251 329.297C340.748 334.249 339.471 339.124 337.464 343.679" fill="#F8A272"/>
<path d="M337.369 329.599C336.608 330.774 335.953 332.056 335.117 333.171C334.3 334.26 333.928 335.806 333.429 337.075C332.902 338.416 332.31 339.842 331.109 340.636C329.406 341.764 327.125 341.23 325.229 340.468C324.862 341.326 323.94 341.799 323.048 342.068C322.156 342.336 321.204 342.48 320.418 342.982C318.981 343.899 318.36 345.847 316.797 346.53C315.392 347.143 313.704 346.462 312.64 345.358C311.393 344.066 310.929 342.502 310.056 340.992C309.108 339.358 307.802 337.952 306.394 336.706C304.957 335.435 303.393 334.327 301.897 333.128C300.673 332.147 299.217 331.886 298.424 330.35C298.152 329.82 297.985 329.22 298.058 328.63C298.23 327.234 299.609 327.042 300.748 326.736C302.618 326.234 304.344 325.207 305.676 323.802C307.106 322.294 308.136 320.327 309.948 319.308C312.026 318.139 314.63 318.514 316.892 319.274C319.98 320.312 322.822 321.994 325.914 323.022C329.008 324.048 332.581 324.348 335.384 322.686C336.417 322.072 337.832 321.159 339.097 321.479C341.532 322.095 339.464 326.4 338.733 327.515C338.28 328.208 337.821 328.902 337.369 329.599" fill="#E16646"/>
<path d="M281.337 313.593C300.932 315.833 328.569 320.207 347.968 323.763C349.627 324.067 351.344 324.4 352.715 325.384C354.084 326.367 355 328.197 354.399 329.772C353.885 331.12 352.464 331.884 351.093 332.328C346.545 333.801 341.613 333.012 336.9 332.209C316.261 328.693 295.624 325.177 274.985 321.663L281.337 313.593Z" fill="#040606"/>
<path d="M256.288 322.422C261.497 323.975 266.726 325.534 272.116 326.411C274.689 326.83 277.52 327.048 279.754 325.759C281.9 324.522 282.99 322.186 283.885 319.975C284.732 317.88 285.52 315.766 286.246 313.632C286.621 312.532 286.984 311.36 286.694 310.242C286.174 308.23 283.841 307.208 281.742 306.584C276.634 305.066 271.32 304.259 266.026 303.456C263.364 303.054 260.7 302.65 258.037 302.247C256.872 302.07 255.606 302.012 254.51 301.624C253.344 301.211 252.07 301.079 250.834 301.268C249.896 301.412 248.873 301.842 248.592 302.696C248.324 303.508 248.864 304.394 249.616 304.859C250.366 305.326 251.284 305.472 252.169 305.635C253.053 305.796 253.97 306.001 254.657 306.547C255.001 306.822 255.288 307.256 255.13 307.656C254.986 308.022 254.54 308.19 254.137 308.281C252.965 308.546 251.724 308.531 250.562 308.239C249.824 308.054 249.117 307.758 248.365 307.624C247.613 307.491 246.772 307.546 246.17 307.994C245.38 308.584 245.237 309.724 245.644 310.588C246.049 311.452 246.89 312.071 247.784 312.502C248.677 312.934 249.646 313.213 250.554 313.615C251.462 314.019 252.337 314.576 252.832 315.399C253.049 315.759 253.166 316.259 252.858 316.558C252.502 316.904 251.892 316.719 251.425 316.523C249.816 315.85 248.132 315.331 246.409 314.978C245.865 314.867 245.268 314.778 244.77 315.019C244.288 315.254 244.01 315.76 243.917 316.264C243.442 318.814 246.221 319.419 248.17 320C250.876 320.807 253.581 321.614 256.288 322.422" fill="#040606"/>
<path d="M260.539 349.525C260.471 350.2 260.405 350.904 260.641 351.54C260.877 352.176 261.512 352.72 262.183 352.616C263.019 352.487 263.407 351.528 263.628 350.712C265.773 342.795 266.736 334.613 267.692 326.467C268.139 322.663 268.585 318.859 269.032 315.055C269.156 313.993 269.276 312.887 268.913 311.883C268.552 310.877 267.549 310.016 266.495 310.191C265.109 310.42 264.564 312.089 264.328 313.473C263.544 318.056 263.495 322.677 262.877 327.26C262.253 331.899 261.852 336.577 261.379 341.237C261.099 344 260.819 346.763 260.539 349.525" fill="#F3BD57"/>
<path d="M259.839 298.776C258.766 299.011 257.576 299.515 256.67 300.082C254.432 301.476 252.887 303.746 251.644 306.071C250.554 308.115 250.019 310.299 249.379 312.523C248.651 315.051 248.21 317.66 248.068 320.287C248.006 321.466 248.043 322.766 248.822 323.652C249.45 324.368 250.422 324.652 251.34 324.904C257.023 326.46 262.706 328.016 268.387 329.572C270.339 330.107 272.64 330.576 274.211 329.3C275.14 328.546 275.575 327.322 275.68 326.13C275.786 324.938 275.606 323.742 275.527 322.548C275.332 319.598 275.771 316.584 276.975 313.884C278.18 311.183 280.172 308.81 282.723 307.315C283.423 306.904 284.234 306.475 284.447 305.692C284.707 304.742 283.936 303.83 283.152 303.234C280.514 301.224 277.144 300.474 273.866 299.974C270.751 299.499 267.611 299.203 264.47 298.968C263.094 298.864 261.4 298.478 260.039 298.736C259.972 298.748 259.906 298.762 259.839 298.776" fill="#F39718"/>
<path d="M251.417 321.596C251.96 314.361 255.38 307.551 260.06 302.008C261.29 300.551 262.793 299.076 264.693 298.92C261.313 302.649 257.933 306.437 255.418 310.797C255.418 311.187 254.758 311.991 254.572 312.359C254.28 312.933 254.005 313.518 253.749 314.11C253.248 315.268 252.82 316.459 252.482 317.676C251.805 320.12 251.548 322.616 251.712 325.146C251.404 323.938 251.322 322.847 251.417 321.596" fill="#F3BD57"/>
<path d="M269.894 298.848C270.03 299.666 269.528 300.44 269.042 301.111C265.41 306.132 261.306 310.931 258.948 316.66C257.682 319.732 257.177 323.523 255.365 326.319C255.338 324.515 255.912 322.498 256.348 320.752C256.858 318.703 257.526 316.694 258.338 314.744C259.965 310.846 262.17 307.187 264.868 303.936C266.392 302.099 268.074 300.392 269.894 298.848Z" fill="#F3BD57"/>
<path d="M275.79 300.118C276.028 300.976 275.448 301.827 274.896 302.527C272.197 305.955 269.406 309.332 267.158 313.071C264.91 316.811 263.208 320.968 262.91 325.322C262.856 326.123 262.941 327.567 262.31 328.142C261.757 326.651 262.36 324.076 262.584 322.544C262.9 320.394 263.424 318.275 264.141 316.224C265.56 312.163 267.729 308.362 270.521 305.086C272.09 303.246 273.857 301.571 275.79 300.118Z" fill="#F3BD57"/>
<path d="M279.071 303.384C279.79 302.802 280.599 302.228 281.524 302.196C281.083 303.391 280.09 304.278 279.175 305.162C273.942 310.227 270.287 316.878 268.723 323.984C268.307 325.872 268.108 327.766 267.924 329.686C267.459 321.976 269.616 314.331 274.372 308.199C275.75 306.424 277.326 304.8 279.071 303.384Z" fill="#F3BD57"/>
<path d="M340.709 314.072C340.312 313.352 339.81 312.708 339.19 312.268C337.754 311.25 335.58 310.975 334.004 311.815C333.249 309.751 331.333 308.156 329.165 307.79C326.997 307.423 324.664 308.3 323.272 310.002C322.421 307.966 320.326 306.51 318.12 306.424C315.914 306.339 313.712 307.627 312.706 309.592C312.886 308.35 311.636 307.262 310.384 307.17C309.13 307.076 307.942 307.694 306.88 308.362C303.681 310.374 300.857 313.07 299.054 316.391C297.252 319.711 296.529 323.682 297.437 327.35C297.778 328.732 298.401 330.13 299.568 330.946C300.736 331.763 302.548 331.768 303.434 330.654C304.357 332.755 306.488 334.272 308.774 334.456C311.061 334.64 313.408 333.484 314.654 331.558C315.234 333.448 316.53 335.24 318.408 335.862C320.286 336.483 322.701 335.532 323.208 333.62C323.209 335.2 324.052 336.755 325.374 337.62C326.697 338.486 328.46 338.634 329.908 338.002C331.758 337.194 332.906 335.315 333.636 333.434C334.366 331.551 334.809 329.54 335.834 327.802C336.54 326.606 337.506 325.567 338.569 324.679C339.698 323.735 340.88 323.115 342.194 322.435C342.182 320.559 342.168 318.664 341.738 316.838C341.533 315.962 341.2 314.96 340.709 314.072" fill="#F8A272"/>
<path d="M310.117 311.762C307.997 314.451 306.572 317.634 305.572 320.91C304.573 324.184 303.984 327.57 303.396 330.943C302.588 327.823 302.985 324.479 304.056 321.439C305.126 318.399 306.841 315.627 308.692 312.99C309.456 311.902 310.562 310.148 311.9 309.732C311.945 310.114 311.424 310.359 311.178 310.586C310.789 310.943 310.445 311.347 310.117 311.762" fill="#E16646"/>
<path d="M314.754 331.859C314.239 329.194 314.758 326.418 315.703 323.874C316.65 321.33 318.011 318.966 319.255 316.552C320.414 314.306 321.452 311.698 323.182 309.815C322.842 311.004 321.836 312.188 321.259 313.298C320.523 314.712 319.862 316.166 319.259 317.642C318.059 320.578 317.088 323.602 316.206 326.646C315.702 328.378 315.227 330.118 314.754 331.859" fill="#E16646"/>
<path d="M323.483 334.259C323.206 333.376 323.291 332.413 323.54 331.523C323.791 330.632 324.199 329.795 324.576 328.951C325.932 325.908 326.899 322.705 328.234 319.655C329.552 316.625 331.311 313.667 333.923 311.577C331.776 313.727 330.346 316.903 329.052 319.644C327.626 322.669 326.424 325.796 325.307 328.947C324.68 330.712 324.082 332.485 323.483 334.259" fill="#E16646"/>
<path d="M289.685 552.292C285.665 542.091 281.445 533.091 278.396 522.404C274.912 510.196 271.428 497.987 267.944 485.779C261.069 461.693 254.196 437.607 247.322 413.52C244.862 404.9 242.337 396.136 237.461 388.613C228.574 374.908 215.446 373.521 200.381 372.6C182.826 371.524 165.137 372.723 147.882 376.128C137.017 378.272 126.36 380.999 118.481 389.26C110.393 397.741 109.992 413.243 110.83 424.353C111.692 435.792 114.685 446.956 117.921 457.963C127.944 492.044 140.449 525.395 155.305 557.663" fill="#467DA8"/>
<path d="M206.833 361.876C207.263 365.252 207.023 368.611 207.479 371.915C208.053 376.067 208.943 380.183 209.519 384.34C210.375 390.518 213.159 397.495 208.371 402.752C205.524 405.879 201.197 407.374 196.969 407.482C192.743 407.59 188.579 406.44 184.617 404.962C178.408 402.642 172.517 399.476 167.144 395.595C164.448 393.647 162.124 391.034 159.389 389.198C157.525 387.947 154.264 387.467 153.175 385.283C152.783 384.495 152.987 383.554 153.192 382.696C155.684 372.343 157.24 361.766 157.847 351.135C158.421 341.056 157.331 331.136 158.708 321.172C159.008 319.004 158.689 312.86 160.893 311.624C162.672 310.626 165.733 312.799 167.307 313.46C174.307 316.407 183.197 316.256 190.685 316.226C191.531 316.222 192.375 316.21 193.219 316.188C194.487 316.156 195.808 316.114 196.964 316.636C198.464 317.314 199.431 318.858 199.824 320.456C203.129 333.922 205.056 347.912 206.833 361.876" fill="#F8A272"/>
<path d="M207.52 373.271C207.532 373.701 207.541 374.132 207.548 374.564C207.557 375.103 207.556 375.663 207.324 376.151C206.395 378.107 201.721 378.023 199.921 377.927C196.62 377.748 193.344 377.151 190.183 376.185C183.753 374.221 177.792 370.74 172.901 366.129C165.039 358.717 159.964 348.532 158.244 337.864C157.975 336.191 157.691 334.276 158.156 332.609C158.643 330.861 160.025 330.948 161.708 330.916C166.677 330.821 171.644 331.471 176.487 332.588C182.552 333.987 188.667 336.237 193.461 340.324C195.827 342.34 197.896 344.803 200.075 347.029C201.405 348.389 203.036 349.988 204.083 351.58C205.283 353.405 205.476 356.232 205.88 358.34C206.824 363.263 207.373 368.26 207.52 373.271" fill="#E16646"/>
<path d="M236.084 305.374C236.019 314.19 235.632 323.003 234.924 331.79C234.513 336.891 233.944 342.147 231.455 346.616C226.607 355.319 215.747 358.808 205.792 359.159C189.58 359.728 173.231 353.778 161.179 342.919C138.36 322.36 135.723 290.011 146.819 262.67C150.957 252.472 157.593 242.651 167.564 237.996C173.881 235.048 181.048 234.408 188.012 234.718C196.808 235.11 205.715 237.028 213.197 241.671C224.651 248.779 234.135 262.759 235.125 276.262C235.836 285.947 236.155 295.662 236.084 305.374" fill="#F8A272"/>
<path d="M238.082 255.745C237.03 259.608 235.061 263.304 232.373 266.425C228.001 271.499 221.997 275.009 215.618 277.052C209.24 279.095 202.481 279.732 195.784 279.687C198.608 274.123 198.666 267.236 195.938 261.624C191.836 277.268 177.962 287.579 162.082 288.432C157.084 288.701 152.181 287.789 147.218 287.587C143.888 287.452 140.338 285.207 139.153 282.049C138.417 280.088 138.356 277.941 138.446 275.848C138.892 265.671 142.886 255.683 149.584 248.007C153.689 243.301 158.794 239.483 164.437 236.815C167.252 235.484 170.322 234.253 173.393 233.671C174.553 233.451 175.7 233.687 176.841 233.48C178.378 233.199 179.789 232.153 181.26 231.632C185.697 230.059 190.31 229.043 194.936 228.207C201.562 227.009 208.333 226.151 215.022 226.919C221.713 227.688 228.377 230.219 233.118 235.001C238.817 240.749 240.044 248.54 238.082 255.745" fill="#040606"/>
<path d="M215.557 317.443C216.069 318.58 216.588 319.736 216.761 320.971C216.933 322.206 216.717 323.552 215.902 324.495C214.844 325.718 212.97 325.995 211.437 325.483C209.902 324.972 208.669 323.808 207.681 322.528C203.565 317.202 203.097 309.571 203.829 303.118C203.942 302.115 204.112 301.079 204.684 300.248C205.256 299.418 206.342 298.858 207.292 299.198C208.448 299.611 208.83 301.016 209.114 302.21C210.398 307.6 213.297 312.427 215.557 317.443" fill="#E16646"/>
<path d="M193.712 301.898C193.652 303.06 193.323 304.272 192.286 305.168C191.248 306.064 189.344 306.523 187.928 305.95C186.739 305.47 186.215 304.444 185.978 303.483C185.49 301.504 185.827 299.426 186.936 297.582C187.712 296.294 190.052 294.675 191.856 296.124C193.556 297.491 193.8 300.182 193.712 301.898" fill="#040606"/>
<path d="M199.466 290.627C198.108 286.354 193.808 283.196 189.324 283.18C184.838 283.163 180.516 286.287 179.125 290.551" stroke="#040606" stroke-width="1.33333" stroke-miterlimit="10" stroke-linecap="round" stroke-linejoin="round"/>
<path d="M226.027 302.518C225.968 303.68 225.639 304.894 224.6 305.788C223.563 306.684 221.659 307.143 220.243 306.571C219.053 306.09 218.531 305.066 218.292 304.103C217.804 302.126 218.141 300.047 219.252 298.202C220.027 296.914 222.368 295.296 224.171 296.746C225.871 298.111 226.115 300.803 226.027 302.518" fill="#040606"/>
<path d="M214.844 284.025C216.95 281.628 220.634 280.987 223.645 282.045C226.657 283.103 228.998 285.623 230.388 288.496" stroke="#040606" stroke-width="1.33333" stroke-miterlimit="10" stroke-linecap="round" stroke-linejoin="round"/>
<path d="M200.033 331.004C201.088 331.195 202.149 331.346 203.212 331.458C208.187 331.976 213.209 331.716 218.2 331.376C218.067 334.986 218.761 338.512 218.761 342.083C217.796 342.499 216.796 342.822 215.781 343.098C211.767 337.728 206.249 333.508 200.033 331.004" fill="#040606"/>
<path d="M187.757 326.792C188.09 326.471 188.636 326.716 189.028 326.962C191.404 328.44 194.004 329.51 196.704 330.255C197.8 330.558 198.912 330.803 200.033 331.004C206.249 333.508 211.766 337.728 215.781 343.098C215.45 343.188 215.124 343.294 214.789 343.368C203.425 345.926 190.186 339.756 187.626 327.754C187.556 327.422 187.513 327.026 187.757 326.792" fill="#F1484A"/>
<path d="M166.345 313.123C166.256 327.731 168.583 342.404 172.713 356.497C174.567 362.821 176.717 369.083 177.845 375.575C178.972 382.068 179.029 388.9 176.756 395.085C175.401 398.768 173.068 402.303 169.539 404.016C164.924 406.257 159.284 404.899 154.883 402.26C150.483 399.623 146.897 395.839 142.796 392.756C135.595 387.343 126.15 383.333 117.045 385.196C114.811 385.653 112.241 386.345 110.444 384.94C108.745 383.612 108.679 381.077 109.033 378.949C110.364 370.933 115.277 364.216 119.835 357.72C124.664 350.839 128.286 343.787 131.309 335.993C133.971 329.132 134.772 321.688 135.009 314.383C135.328 304.54 134.697 294.593 136.527 284.916C137.029 282.256 137.757 279.545 139.439 277.423C140.869 275.617 142.883 274.377 144.892 273.252C152.615 268.931 160.971 265.741 169.608 263.819C171.06 263.495 172.719 263.248 173.915 264.131C175.845 265.555 175.091 268.551 174.215 270.784C168.861 284.421 166.432 298.74 166.345 313.123" fill="#040606"/>
<path d="M84.0924 528.653C84.0732 529.059 84.0544 529.465 84.0361 529.871C83.9085 532.705 83.8555 535.736 85.3585 538.143C87.8039 542.06 93.1528 542.681 97.7653 542.895C103.857 543.176 113.425 545.976 117.635 540.917C122.602 534.948 125.585 525.509 128.615 518.421C135.07 503.32 140.24 487.627 143.916 471.617C149.157 449.045 153.55 423.861 144.338 401.688C140.768 393.095 128.629 373.084 119.476 386.973C107.821 404.659 101.961 426.636 96.6804 446.979C93.3143 459.944 90.0383 472.296 88.1404 485.728C86.1284 499.964 84.7768 514.293 84.0924 528.653" fill="#F8A272"/>
<path d="M115.757 484.44C109.639 489.2 104.019 494.6 99.0386 500.54C98.0902 501.672 97.1235 502.932 96.7167 504.375C96.3277 505.757 96.5542 507.303 96.335 508.743C95.8255 512.079 95.4585 515.433 95.0918 518.788C97.6422 516.305 100.193 513.823 102.744 511.339C108.278 505.952 113.812 500.565 119.38 495.215C121.791 492.896 124.016 490.459 126.596 488.309C129.11 486.212 131.732 484.247 134.248 482.152C138.931 478.257 143.383 473.709 145.395 467.96C134.741 471.875 124.715 477.472 115.757 484.44" fill="#E16646"/>
<path d="M125.402 435.911C116.938 433.016 107.951 431.844 99.0068 431.77C100.492 426.379 101.977 420.988 103.462 415.598C104.551 411.643 105.903 407.323 109.388 405.16C111.627 403.771 114.44 403.532 117.027 404.03C119.615 404.527 122.02 405.7 124.324 406.98C133.019 411.815 140.843 418.486 146.059 426.958C151.13 435.191 153.98 445.87 151.773 455.475C149.462 454.795 148.336 453.042 147.341 451.007C146.089 448.446 144.762 446.767 142.473 444.986C137.364 441.008 131.519 438.003 125.402 435.911" fill="#345D7D"/>
<path d="M207.152 437.492C207.916 438.535 208.601 439.639 209.28 440.516C211.256 443.074 213.233 445.632 215.209 448.19C193.152 475.75 168.385 501.139 141.382 523.875C128.968 534.327 115.338 545.01 98.2304 543.529C93.4789 543.119 88.468 541.405 85.8133 537.443C82.9852 533.222 83.906 528.454 84.7664 523.807C85.5071 519.808 89.57 516.227 92.1617 513.171C98.5191 505.675 105.374 498.6 112.662 492.006C128.232 477.918 145.904 467.235 163.545 456.067C174.592 449.072 185.802 442.335 197.164 435.863C199.168 434.722 201.526 433.556 203.676 434.387C205.065 434.924 206.173 436.159 207.152 437.492" fill="#F8A272"/>
<path d="M214.443 412.707C214.483 412.679 214.522 412.65 214.562 412.622C218.531 409.77 223.892 408.266 226.082 403.896C226.522 403.018 226.804 402.061 227.319 401.225C227.832 400.387 228.66 399.653 229.642 399.607C230.61 399.563 231.511 400.22 231.986 401.066C232.459 401.911 232.57 402.912 232.56 403.882C232.522 407.855 230.631 411.589 228.324 414.825C226.018 418.061 223.259 420.966 221.096 424.299C220.468 425.268 219.878 426.483 220.368 427.527C220.95 428.766 222.692 428.931 223.986 428.48C228.947 426.751 233.626 423.723 238.386 421.471C243.408 419.095 248.54 416.911 253.868 415.312C255.256 414.896 256.683 414.516 258.131 414.579C259.578 414.642 261.068 415.209 261.934 416.371C263.182 418.05 262.787 420.51 261.627 422.251C260.467 423.992 258.696 425.211 257.052 426.505C249.739 432.264 244.354 440.17 237.103 446.007C231.242 450.726 224.298 453.943 217.086 455.984C214.244 456.788 211.399 457.446 208.447 457.642C206.176 457.794 203.774 456.792 201.728 455.85C197.494 453.896 193.776 450.807 191.144 446.952C190.176 445.534 189.323 443.906 189.452 442.194C189.638 439.712 191.758 437.891 193.638 436.26C197.803 432.648 201.56 428.568 204.819 424.12C207.772 420.086 210.411 415.654 214.443 412.707" fill="#F8A272"/>
<path d="M253.296 425.385C254.128 424.841 254.942 424.269 255.734 423.661C256.852 422.801 257.929 421.86 258.738 420.704C259.549 419.549 260.08 418.157 260.009 416.749C259.966 415.913 259.597 414.971 258.793 414.739C259.808 416.073 259.48 418.065 258.492 419.42C257.505 420.775 256.004 421.643 254.554 422.487C252.404 423.739 250.27 425.021 248.156 426.333C244.63 428.52 241.156 430.789 237.737 433.139C237.022 433.631 236.373 434.248 235.625 434.664C234.717 435.169 233.804 435.664 232.901 436.179C231.54 436.953 230.192 437.752 228.857 438.573C228.404 438.851 227.845 439.153 227.464 439.528C227.346 439.644 226.826 440.965 227.056 440.907C228.425 440.561 229.63 439.768 230.806 438.987C231.381 438.607 231.956 438.225 232.53 437.844C235.97 435.563 239.368 433.279 242.953 431.251C246.402 429.3 249.977 427.561 253.296 425.385" fill="#E16646"/>
<path d="M256.208 426.887C255.126 427.602 254.044 428.312 252.96 429.022C249.388 431.362 245.804 433.682 242.206 435.982C238.712 438.219 235.249 440.646 231.633 442.671C231.177 442.927 230.21 443.714 230.706 444.362C231.229 445.047 232.561 444.134 233.048 443.803C241.005 438.375 248.697 432.572 256.385 426.771C256.326 426.81 256.266 426.848 256.208 426.887Z" fill="#E16646"/>
<path d="M84.0326 507.431C70.8696 507.431 60.1992 496.76 60.1992 483.598V458.046H107.865V483.598C107.865 496.76 97.1951 507.431 84.0326 507.431Z" fill="#D1E2E8"/>
<path d="M103.519 539.267H64.5462C62.1456 539.267 60.1992 541.212 60.1992 543.614H107.865C107.865 541.212 105.919 539.267 103.519 539.267" fill="#D1E2E8"/>
<path d="M87.6983 539.902H80.1035V483.011H87.6983V539.902Z" fill="#D1E2E8"/>
<path d="M64.0303 473.348H104.538V483.675C104.538 494.86 95.4699 503.928 84.284 503.928C73.098 503.928 64.0303 494.86 64.0303 483.675V473.348Z" fill="#F1484A"/>
<path d="M64.0309 473.348C63.9866 475.565 66.3262 477.773 68.5352 477.584C70.1628 477.445 71.5481 476.331 73.142 475.971C75.3393 475.473 77.58 476.464 79.5601 477.539C81.5409 478.612 83.5836 479.832 85.8362 479.833C88.22 479.836 90.3617 478.479 92.3862 477.22C94.4106 475.961 96.659 474.713 99.0289 474.969C99.8305 475.055 100.603 475.313 101.399 475.444C102.194 475.576 103.055 475.569 103.752 475.163C104.448 474.756 104.538 474.56 104.586 473.112" fill="#B1393A"/>
<path d="M77.5309 496.592C76.9076 496.788 76.2309 497.065 75.9538 497.657C75.6956 498.21 75.8836 498.892 76.2726 499.362C76.6617 499.832 77.2185 500.128 77.7737 500.382C82.2174 502.407 87.519 502.297 91.9992 500.355C92.5513 500.117 93.1091 499.838 93.4951 499.376C93.8809 498.915 94.0533 498.226 93.759 497.7C93.5685 497.36 93.2195 497.142 92.8743 496.959C90.7185 495.823 87.9341 495.574 85.5304 495.496C82.8278 495.408 80.1101 495.778 77.5309 496.592" fill="#B1393A"/>
<path d="M104.586 462.037H64.0303V470.09H104.586V462.037Z" fill="#EFEFED"/>
<path d="M739.34 516.246C747.459 512.978 754.898 507.491 761.939 502.115C771.995 494.435 782.35 486.254 787.767 474.819C791.802 466.306 792.68 456.759 792.532 447.454C792.414 439.952 792.959 428.728 788.684 422.162C773.763 430.94 762.603 444.759 751.786 458.275C748.96 461.806 746.112 465.318 743.308 468.867C742.822 469.483 735.202 477.472 735.223 477.595C732.19 460.087 728.839 442.634 725.175 425.247C724.31 421.143 723.175 404.34 719.079 402.622C717.688 402.038 697.444 408.779 697.364 407.788C698.91 427.031 700.699 446.252 702.732 465.45C703.764 475.191 704.86 484.926 706.018 494.652C706.811 501.315 706.65 510.796 712.508 515.398C716.566 518.586 722.018 519.515 727.166 519.16C731.402 518.868 735.448 517.811 739.34 516.246" fill="#F8A272"/>
<path d="M744.178 487.152C743.66 490.407 742.751 493.592 741.294 496.542C741.301 496.528 740.154 494.459 740.08 494.165C739.856 493.26 739.818 492.416 739.533 491.517C738.838 489.333 738.166 487.142 737.478 484.955C737.07 483.656 736.66 482.359 736.247 481.061C735.899 479.968 735.143 478.561 735.099 477.417C735.059 476.405 735.815 476.144 736.571 475.571C737.522 474.851 738.436 474.084 739.311 473.272C741.06 471.651 742.65 469.856 744.043 467.919C744.515 472.755 744.929 477.615 744.666 482.465C744.582 484.032 744.424 485.6 744.178 487.152" fill="#E16646"/>
<path d="M753.93 449.807C752.676 451.26 751.424 452.784 750.821 454.607C750.045 456.952 750.434 459.511 750.956 461.925C754.072 476.379 761.757 489.812 772.636 499.824C773.465 500.587 774.48 501.383 775.592 501.199C776.536 501.043 777.21 500.227 777.764 499.447C783.15 491.835 785.314 482.377 786.049 473.081C786.784 463.784 786.21 454.429 786.713 445.117C787.236 435.449 789.444 427.016 793.629 418.345C791.35 416.92 788.719 420.241 786.939 421.369C783.929 423.277 780.982 425.287 778.114 427.404C772.482 431.563 767.144 436.119 762.153 441.029C759.294 443.843 756.55 446.771 753.93 449.807" fill="#6294B5"/>
<path d="M691.328 405.395C693.14 408.446 695.408 411.324 698.436 413.174C701.463 415.024 705.351 415.714 708.618 414.328C709.68 413.878 710.655 413.223 711.755 412.872C713.372 412.358 715.143 412.588 716.69 411.863C718.032 411.232 719.576 411.054 720.846 410.239C722.954 408.887 723.688 406.587 724.464 404.372C725.376 401.766 725.996 399.802 725.126 397.011C724.334 394.479 722.815 392.251 721.506 389.944C720.558 388.271 719.712 386.539 718.976 384.763C718.646 383.963 718.563 383.272 717.811 382.868C717.087 382.479 716.02 382.464 715.223 382.516C713.739 382.615 712.508 383.252 711.112 383.604C709.894 383.912 708.358 383.506 707.095 383.45C704.142 383.318 701.178 383.43 698.242 383.786C694.812 384.202 690.976 384.766 687.799 386.188C684.859 387.506 685.92 390.684 686.494 393.228C687.459 397.503 689.091 401.627 691.328 405.395" fill="#F8A272"/>
<path d="M688.763 393.462C688.961 394.062 689.176 394.658 689.432 395.238C690.999 398.783 693.119 402.084 695.703 404.974C697.964 407.502 700.925 409.851 704.316 409.75C705.256 409.723 706.18 409.503 707.048 409.146C707.713 408.871 708.789 408.464 709.267 407.908C709.517 407.616 709.625 407.128 709.82 406.79C710.06 406.372 710.341 405.98 710.647 405.608C711.265 404.854 711.987 404.19 712.729 403.56C713.925 402.547 715.195 401.599 716.227 400.411C717.307 399.168 718.293 397.882 719.252 396.531C720.268 395.1 721.255 393.648 722.232 392.191C723.009 391.032 724.544 389.575 724.168 388.062C723.869 386.86 722.644 386.839 721.616 386.692C719.929 386.452 718.312 385.738 717 384.652C715.589 383.486 714.481 381.876 712.789 381.178C710.848 380.376 708.612 380.979 706.717 381.884C704.128 383.119 701.823 384.891 699.229 386.116C696.636 387.343 693.544 387.983 690.919 386.828C689.951 386.402 688.617 385.754 687.545 386.167C685.909 386.799 687.053 388.684 687.48 389.69C687.996 390.907 688.344 392.196 688.763 393.462" fill="#E16646"/>
<path d="M670.511 393.028L728.603 358.325C731.664 360.041 738.184 364.248 742.883 372.388C746.717 379.035 747.601 385.291 747.831 388.707C726.22 397.491 704.611 406.276 683 415.06C680.797 413.263 677.516 410.139 674.788 405.388C671.956 400.459 670.928 395.881 670.511 393.028Z" fill="#D1E2E8"/>
<path d="M675.633 394.636L727.779 362.736C730.381 364.514 735.421 368.495 738.693 375.456C740.638 379.595 741.306 383.398 741.541 386.05C722.233 393.575 702.925 401.102 683.617 408.627C680.991 404.127 678.366 399.626 675.741 395.126" fill="#EFEFED"/>
<path d="M736.143 388.384C719.455 396.587 702.33 403.494 684.777 409.627C680.129 405.879 676.838 400.484 675.633 394.636C677.73 391.571 681.747 391.094 685.43 391.575C689.113 392.058 692.773 393.316 696.455 392.836C700.557 392.302 704.038 389.707 707.502 387.447C710.965 385.186 714.973 383.111 719.05 383.804C721.718 384.259 724.15 385.876 726.857 385.912C730.335 385.959 733.491 383.378 736.963 383.616C738.738 383.739 740.446 384.646 741.541 386.05L736.143 388.384Z" fill="#6294B5"/>
<path d="M681.811 377.839C681.923 377.124 682.146 376.442 682.527 375.891C683.41 374.616 685.127 373.736 686.683 373.959C686.687 372.024 687.795 370.13 689.479 369.176C691.163 368.223 693.359 368.247 695.02 369.239C695.114 367.298 696.411 365.464 698.211 364.732C700.011 363.999 702.219 364.404 703.642 365.73C703.12 364.755 703.828 363.479 704.838 363.027C705.846 362.575 707.015 362.728 708.095 362.963C711.346 363.667 714.491 365.052 716.98 367.259C719.468 369.466 721.258 372.535 721.607 375.843C721.739 377.09 721.643 378.434 720.923 379.459C720.202 380.486 718.703 381.034 717.635 380.376C717.502 382.392 716.194 384.288 714.356 385.127C712.519 385.966 710.23 385.712 708.62 384.492C708.707 386.231 708.174 388.103 706.806 389.18C705.438 390.259 703.154 390.196 702.16 388.766C702.634 390.074 702.403 391.614 701.568 392.726C700.734 393.839 699.319 394.49 697.931 394.402C696.158 394.288 694.643 393.079 693.474 391.74C692.306 390.402 691.336 388.87 689.966 387.739C689.022 386.96 687.91 386.391 686.764 385.975C685.547 385.534 684.383 385.374 683.091 385.206C682.539 383.65 681.982 382.078 681.79 380.438C681.696 379.651 681.671 378.722 681.811 377.839" fill="#F8A272"/>
<path d="M706.435 366.748C708.996 368.337 711.132 370.543 712.941 372.955C714.752 375.365 716.255 377.989 717.753 380.605C717.487 377.78 716.153 375.131 714.356 372.937C712.557 370.743 710.307 368.964 707.983 367.336C707.025 366.664 705.583 365.547 704.351 365.603C704.428 365.932 704.932 365.979 705.204 366.092C705.633 366.272 706.04 366.503 706.435 366.748Z" fill="#E16646"/>
<path d="M708.629 384.771C708.256 382.411 706.993 380.27 705.447 378.448C703.9 376.626 702.064 375.078 700.311 373.455C698.677 371.943 697.035 370.096 695.04 369.058C695.679 369.939 696.865 370.616 697.676 371.362C698.709 372.312 699.692 373.316 700.635 374.356C702.508 376.426 704.219 378.638 705.864 380.892C706.8 382.175 707.715 383.472 708.629 384.771" fill="#E16646"/>
<path d="M702.125 389.376C702.089 388.563 701.731 387.791 701.256 387.13C700.781 386.467 700.193 385.898 699.628 385.311C697.592 383.202 695.831 380.84 693.811 378.716C691.811 376.604 689.467 374.684 686.679 373.738C689.1 374.874 691.237 377.072 693.129 378.954C695.219 381.028 697.152 383.255 699.021 385.528C700.069 386.8 701.097 388.088 702.125 389.376" fill="#E16646"/>
<path d="M717.87 411.451C715.771 411.816 713.612 412.478 711.811 410.844C710.483 409.64 710.008 407.584 710.674 405.92C711.423 404.047 713.306 402.922 714.603 401.475C715.274 400.726 716.211 400.246 716.894 399.478C717.643 398.636 718.262 397.688 718.823 396.715C719.922 394.811 720.852 392.777 722.327 391.146C724.648 388.579 728.175 387.266 731.636 387.278C732.503 387.281 733.503 387.439 733.947 388.183C734.291 388.762 734.164 389.524 733.823 390.104C733.482 390.684 732.958 391.131 732.47 391.595C730.386 393.575 728.803 396.079 727.908 398.811C727.306 400.651 727.011 402.587 726.336 404.403C726.016 405.264 725.6 406.098 725.054 406.839C724.447 407.663 723.684 408.078 722.939 408.726C721.434 410.035 719.896 411.098 717.87 411.451" fill="#F8A272"/>
<path d="M767.643 566.699C765.975 552.958 766.564 539.053 767.156 525.224C768.159 501.795 769.179 478.195 774.134 455.199C778.256 436.068 784.272 418.874 803.818 410.702C817.807 404.851 833.698 405.24 848.567 408.214C877.783 414.058 881.19 438.676 884.372 464.218C888.107 494.192 888.778 524.548 886.343 554.658" fill="#467DA8"/>
<path d="M808.997 397.784C808.595 400.782 808.727 403.751 808.303 406.683C807.771 410.371 806.989 414.03 806.456 417.722C805.663 423.206 803.319 429.432 807.043 434.003C809.257 436.72 812.681 437.967 816.049 437.987C819.417 438.008 822.757 436.916 825.943 435.535C830.935 433.371 835.688 430.464 840.041 426.931C842.225 425.159 844.125 422.804 846.339 421.13C847.847 419.988 850.455 419.506 851.363 417.552C851.691 416.848 851.544 416.018 851.395 415.263C849.593 406.142 848.54 396.803 848.247 387.402C847.968 378.49 849.014 369.687 848.094 360.89C847.892 358.975 848.256 353.53 846.522 352.475C845.12 351.622 842.641 353.6 841.375 354.215C835.74 356.947 828.655 356.972 822.686 357.078C822.012 357.09 821.339 357.094 820.666 357.091C819.655 357.084 818.603 357.071 817.672 357.554C816.464 358.182 815.666 359.564 815.324 360.987C812.448 372.968 810.663 385.39 808.997 397.784" fill="#F8A272"/>
<path d="M808.247 407.886C808.229 408.267 808.213 408.648 808.201 409.031C808.185 409.508 808.176 410.004 808.351 410.431C809.057 412.147 812.785 411.99 814.223 411.872C816.859 411.656 819.48 411.068 822.017 410.158C827.179 408.304 831.995 405.115 835.976 400.946C842.376 394.243 846.604 385.135 848.165 375.66C848.411 374.174 848.671 372.472 848.329 371.006C847.972 369.467 846.868 369.568 845.528 369.57C841.567 369.574 837.596 370.238 833.715 371.312C828.853 372.66 823.939 374.762 820.043 378.464C818.121 380.291 816.427 382.51 814.651 384.519C813.565 385.747 812.237 387.191 811.373 388.62C810.384 390.258 810.179 392.763 809.82 394.638C808.98 399.012 808.452 403.447 808.247 407.886" fill="#E16646"/>
<path d="M796.869 425.474C796.729 426.227 796.609 426.984 796.511 427.747C795.624 434.579 796.512 441.767 799.861 447.787C800.647 449.2 801.829 450.694 803.447 450.695C804.841 450.696 805.959 449.57 806.795 448.454C808.505 446.174 809.792 443.576 810.568 440.834C810.881 439.728 811.484 438.316 812.627 438.448C813.316 438.528 813.781 439.184 814.076 439.812C815.092 441.975 815.161 444.442 815.52 446.804C815.879 449.168 816.669 451.671 818.62 453.051C821.265 454.922 824.911 454.031 827.928 452.851C833.975 450.486 839.765 447.152 844.341 442.496C846.628 440.171 848.111 437.512 849.955 434.882C851.995 431.97 853.636 428.767 854.637 425.35C856.959 417.423 855.389 408.038 849.313 402.442C848.933 403.21 848.537 403.97 848.128 404.723C844.037 412.254 838.565 419.022 832.115 424.658C828.888 427.476 825.415 430.014 821.744 432.223C819.265 433.715 813.875 437.868 811.151 434.99C810.211 433.996 809.845 432.602 809.564 431.263C807.727 422.507 808.015 413.463 808.312 404.522C806.603 405.576 804.729 406.9 803.361 408.372C801.963 409.878 801.181 412.266 800.376 414.158C798.828 417.796 797.588 421.583 796.869 425.474" fill="#6294B5"/>
<path d="M904.203 355.3C904.034 356.328 903.943 357.371 903.94 358.428C903.927 363.684 906.14 368.706 908.881 373.191C909.663 374.468 910.506 375.754 910.828 377.216C911.152 378.679 910.835 380.395 909.643 381.302C908.304 382.323 906.399 382.01 904.796 381.491C895.32 378.416 888.303 369.814 885.364 360.294C882.424 350.775 883.126 340.458 885.396 330.758C886.699 325.196 888.494 319.295 886.542 313.928C885.05 309.826 881.307 307.703 878.478 304.544C875.515 301.236 873.039 297.454 871.537 293.258C869.036 286.27 869.526 277.954 874.011 272.04C878.012 266.764 884.806 263.966 891.426 264.112C898.046 264.259 904.431 267.131 909.504 271.386C914.579 275.64 918.42 281.21 921.394 287.127C924.284 292.882 926.421 299.096 926.892 305.52C927.909 319.412 919.631 329.656 911.73 340.058C908.272 344.608 905.114 349.739 904.203 355.3" fill="#040606"/>
<path d="M875.497 284.422C878.777 288.522 881.809 292.819 884.572 297.283C885.012 297.994 885.457 298.742 885.528 299.575C885.652 301.052 884.596 302.339 883.603 303.442C878.693 308.891 873.76 314.319 868.8 319.722C865.84 310.74 862.857 301.61 857.92 293.483C860.011 294.652 864.688 291.082 866.576 290.016C869.635 288.291 872.613 286.423 875.497 284.422Z" fill="#467DA8"/>
<path d="M777.147 306.031C777.4 305.171 777.676 304.316 777.975 303.467C782.74 289.92 798.104 279.856 810.58 274.19C819.783 270.01 830.056 267.226 839.984 269.123C849.911 271.02 859.235 278.563 860.727 288.559C865.543 289.615 869.667 292.911 872.487 296.956C880.011 307.748 882.476 322.36 880.611 335.228C878.637 348.838 871.975 361.147 861.091 369.518C852.611 376.04 841.361 378.831 830.816 377.03C821.5 375.438 813.113 370.535 805.189 365.384C797.079 360.112 789.048 354.34 783.365 346.511C774.785 334.692 773.1 319.742 777.147 306.031" fill="#040606"/>
<path d="M783.007 347.173C783.043 348.107 783.063 349.041 783.067 349.976C783.087 355.464 782.487 360.939 782.465 366.427C782.445 371.915 783.033 377.515 785.296 382.515C789.299 391.357 797.581 394.767 806.847 395.092C815.788 395.407 824.777 393.488 832.867 389.684C836.493 387.979 840.273 386.045 842.951 383.023C845.685 379.937 848.881 377.841 851.071 374.191C853.204 370.632 854.596 366.68 855.764 362.699C858.42 353.656 859.985 344.296 860.448 334.884C860.7 329.768 860.625 324.637 860.224 319.531C859.855 314.844 859.649 309.805 857.589 305.557C853.955 298.065 848.531 290.995 840.825 287.399C835.211 284.779 828.84 284.208 822.651 284.484C814.832 284.832 806.915 286.537 800.265 290.664C792.531 295.464 787.748 302.559 783.369 310.296C781.18 314.167 781.371 320.016 781.424 324.363C781.488 329.52 782.065 334.651 782.512 339.784C782.725 342.243 782.915 344.707 783.007 347.173" fill="#F8A272"/>
<path d="M798.166 358.015C797.712 359.024 797.25 360.052 797.097 361.149C796.944 362.247 797.136 363.444 797.86 364.283C798.8 365.369 800.465 365.615 801.829 365.16C803.193 364.705 804.289 363.671 805.168 362.533C808.826 357.799 809.242 351.017 808.592 345.281C808.49 344.389 808.34 343.468 807.832 342.729C807.324 341.992 806.357 341.495 805.513 341.796C804.485 342.164 804.146 343.413 803.893 344.473C802.752 349.265 800.176 353.555 798.166 358.015" fill="#E16646"/>
<path d="M817.584 344.196C817.638 345.23 817.93 346.307 818.852 347.104C819.775 347.9 821.467 348.307 822.726 347.799C823.783 347.371 824.248 346.46 824.459 345.606C824.894 343.847 824.594 342 823.607 340.36C822.918 339.215 820.838 337.778 819.234 339.066C817.723 340.28 817.506 342.672 817.584 344.196Z" fill="#040606"/>
<path d="M812.47 334.179C813.678 330.38 817.499 327.575 821.486 327.559C825.471 327.544 829.314 330.321 830.55 334.111" stroke="#040606" stroke-width="1.33333" stroke-miterlimit="10" stroke-linecap="round" stroke-linejoin="round"/>
<path d="M788.862 344.748C788.914 345.782 789.207 346.859 790.13 347.655C791.052 348.451 792.744 348.859 794.003 348.351C795.06 347.923 795.524 347.012 795.736 346.156C796.171 344.399 795.871 342.551 794.884 340.911C794.195 339.767 792.114 338.328 790.511 339.618C789 340.831 788.783 343.223 788.862 344.748Z" fill="#040606"/>
<path d="M798.802 328.311C796.928 326.18 793.655 325.61 790.978 326.551C788.302 327.491 786.22 329.731 784.984 332.286" stroke="#040606" stroke-width="1.33333" stroke-miterlimit="10" stroke-linecap="round" stroke-linejoin="round"/>
<path d="M811.965 370.068C811.028 370.237 810.085 370.372 809.14 370.471C804.717 370.932 800.254 370.7 795.818 370.399C795.936 373.605 795.318 376.741 795.318 379.915C796.177 380.285 797.066 380.572 797.968 380.817C801.536 376.044 806.44 372.293 811.965 370.068Z" fill="#040606"/>
<path d="M822.876 366.323C822.58 366.039 822.096 366.256 821.748 366.473C819.636 367.789 817.325 368.739 814.924 369.401C813.95 369.671 812.963 369.888 811.965 370.068C806.44 372.293 801.536 376.044 797.968 380.817C798.261 380.897 798.552 380.991 798.849 381.057C808.95 383.331 820.717 377.847 822.993 367.179C823.056 366.884 823.093 366.532 822.876 366.323Z" fill="#F1484A"/>
<path d="M808.504 316.411C818.198 313.514 827.1 308.327 835.073 302.095C833.029 317.715 838.445 334.147 849.377 345.49C851.598 347.794 854.433 350.036 857.618 349.728C861.496 349.352 863.972 345.419 865.224 341.731C869.434 329.326 866.589 315.483 861.01 303.63C858.23 297.722 854.737 292.06 849.997 287.57C845.258 283.079 839.177 279.814 832.673 279.244C826.974 278.746 821.309 280.302 815.869 282.072C807.578 284.77 799.324 288.082 792.514 293.527C786.956 297.97 782.12 304.2 780.484 311.243C778.529 319.663 788.128 319.047 794.092 318.83C798.973 318.652 803.825 317.81 808.504 316.411" fill="#040606"/>
<path d="M856.053 336.763C857.115 335.302 858.477 333.886 860.252 333.555C862.547 333.126 864.769 334.647 866.279 336.427C869.848 340.642 870.956 346.758 869.248 352.01C867.541 357.262 863.133 361.516 857.875 363.2C856.3 363.704 854.487 363.966 853.065 363.122C851.509 362.196 850.913 360.243 850.709 358.445C850.488 356.502 850.507 354.535 851.117 352.673C851.649 351.046 851.568 349.456 851.771 347.764C852.244 343.816 853.716 339.984 856.053 336.763" fill="#F8A272"/>
<path d="M861.885 340.632C857.763 345.138 855.954 351.656 857.165 357.642" stroke="#040606" stroke-width="1.33333" stroke-miterlimit="10" stroke-linecap="round" stroke-linejoin="round"/>
<path d="M857.92 346.996C859.363 348.251 861.164 349.088 863.052 349.386" stroke="#040606" stroke-width="1.33333" stroke-miterlimit="10" stroke-linecap="round" stroke-linejoin="round"/>
<path d="M865.977 525.612C865.037 527.215 864.067 528.8 863.067 530.367C859.536 535.895 854.807 541.679 848.271 542.222C843.295 542.635 838.427 539.651 835.723 535.453C833.02 531.256 832.253 526.044 832.636 521.066C833.02 516.088 834.471 511.263 835.913 506.483C840.657 490.766 845.4 475.049 850.144 459.332C853.505 448.192 858.32 432.593 868.544 425.649C874.508 421.597 880.015 425.504 883.701 430.612C883.865 430.839 884.025 431.068 884.184 431.299C888.456 437.528 888.605 447.162 888.153 454.356C887.561 463.774 885.235 472.939 882.763 482.007C881.716 485.847 881.577 489.576 880.325 493.424C878.919 497.746 877.348 502.013 875.607 506.211C872.836 512.884 869.632 519.38 865.977 525.612" fill="#F8A272"/>
<path d="M850.603 514.68C850.757 514.966 850.947 515.28 851.263 515.356C851.619 515.443 851.983 515.167 852.123 514.828C852.263 514.49 852.235 514.108 852.2 513.743C851.253 503.696 847.639 493.914 841.825 485.666C841.288 487.759 840.74 489.85 840.181 491.938C839.971 492.728 839.463 493.77 839.668 494.586C839.857 495.343 840.612 496.232 840.987 496.924C843.055 500.743 845.123 504.562 847.189 508.379C848.327 510.479 849.479 512.572 850.603 514.68" fill="#E16646"/>
<path d="M894.754 460.792C895.129 473.67 892.358 486.406 889.605 498.99C872.266 499.082 854.922 494.804 839.614 486.662C838.501 486.068 837.322 485.378 836.82 484.219C836.228 482.856 836.75 481.291 837.284 479.903C841.229 469.632 844.72 459.427 849.169 449.326C853.894 438.6 858.974 428.03 864.4 417.64C864.66 417.144 864.948 416.62 865.442 416.359C866.261 415.93 867.245 416.392 868.05 416.848C874.757 420.646 881.664 424.615 886.273 430.792C892.404 439.007 894.462 450.754 894.754 460.792" fill="#6294B5"/>
<path d="M791.909 477.342C790.505 475.087 789.752 473.274 788.999 470.74C788.136 467.835 786.332 465.294 786.652 462.114C787.089 457.76 792.14 455.443 796.004 456.639C798.073 457.279 799.776 458.734 801.414 460.151C818.454 474.892 835.532 489.67 850.921 506.127C854.957 510.443 859.021 515.152 860.245 520.932C861.613 527.39 858.866 534.531 853.525 538.408C849.601 541.256 844.361 542.66 839.901 540.436C835.786 538.384 832.693 534.715 829.868 531.195C829.176 530.332 828.486 529.467 827.801 528.599C819.23 517.748 811.18 506.496 803.465 495.024C799.605 489.287 795.829 483.492 792.111 477.662C792.041 477.554 791.974 477.447 791.909 477.342" fill="#F8A272"/>
<path d="M849.167 529.052C851.939 529.587 854.277 531.916 854.819 534.687C853.071 532.924 850.556 531.951 848.076 532.078C845.479 532.211 843.409 533.502 841.65 535.314C840.918 531.036 845.254 528.299 849.167 529.052" fill="#E16646"/>
<path d="M774.07 417.168C774.314 415.615 774.578 414.066 774.862 412.519C783.361 416.74 792.596 419.47 802.022 420.548C801.372 420.474 798.425 437.691 798.196 439.312C797.313 445.555 797.096 451.683 798.008 457.892C798.093 458.471 787.228 458.255 786.264 458.151C782.257 457.718 778.305 456.758 774.552 455.291C772.964 454.67 771.268 454.444 771.372 452.608C771.482 450.647 771.882 448.606 771.969 446.586C772.202 441.11 772.037 435.739 772.494 430.278C772.861 425.891 773.388 421.518 774.07 417.168" fill="#D1E2E8"/>
<path d="M771.372 416.741C779.31 422.213 788.875 425.289 798.512 425.469C795.318 437.844 795.267 451.017 798.366 463.417C798.343 463.324 793.351 462.644 792.868 462.521C791.024 462.053 789.222 461.424 787.484 460.648C783.97 459.077 780.72 456.907 777.936 454.248C775.846 452.252 773.238 449.94 772.786 446.971C772.086 442.359 771.963 437.564 771.73 432.909C771.46 427.525 771.34 422.133 771.372 416.741" fill="#EFEFED"/>
<path d="M803.897 455.002C803.849 453.635 803.679 452.288 803.369 450.988C802.373 446.81 799.741 443.048 799.449 438.764C799.384 437.814 799.436 436.846 799.201 435.923C798.968 435 798.369 434.094 797.455 433.826C796.705 433.607 795.877 433.864 795.257 434.34C794.639 434.815 794.2 435.486 793.828 436.172C791.945 439.635 791.989 442.978 792.38 446.742C792.453 447.448 792.431 448.339 791.788 448.643C791.208 448.916 790.553 448.495 790.052 448.096C788.609 446.948 787.167 445.8 785.725 444.652C784.579 443.739 783.563 442.584 782.383 441.762C779.445 439.712 776.424 437.775 773.448 435.783C772.664 435.259 771.72 434.712 770.835 435.034C770.049 435.32 769.647 436.183 769.435 436.991C768.929 438.908 769.051 440.986 769.773 442.832C768.869 442.752 768.025 443.396 767.591 444.194C767.157 444.991 767.048 445.919 766.947 446.822C766.848 447.7 766.749 448.591 766.869 449.468C766.989 450.344 767.353 451.222 768.036 451.786C766.376 452.559 765.735 454.26 765.661 455.98C765.627 456.796 765.885 457.498 766.359 458.178C766.591 458.511 767.719 459.896 768.216 459.736C765.265 460.684 764.975 464.811 766.88 466.851C767.664 467.69 768.684 468.26 769.687 468.819C778.012 473.454 786.392 478.111 795.405 481.198C795.405 477.68 797.52 474.571 799.331 471.556C802.152 466.858 804.101 460.74 803.897 455.002" fill="#F8A272"/>
<path d="M782.283 453.027C784.231 454.334 786.248 455.58 788.471 456.327C788.613 455.692 788.064 455.131 787.568 454.712C786.252 453.603 784.935 452.492 783.58 451.43C781.393 449.714 779.107 448.124 776.739 446.67C774.493 445.291 772.041 443.682 769.548 442.812C771.049 444.727 773.416 446.348 775.307 447.879C777.555 449.698 779.883 451.416 782.283 453.027" fill="#E16646"/>
<path d="M780.061 460.829C781.247 461.463 782.501 462.105 783.844 462.079C783.888 461.063 782.86 460.372 781.961 459.895C778.883 458.26 775.805 456.625 772.728 454.991C771.339 454.252 770.055 453.317 768.695 452.568C768.625 453.375 770.133 454.356 770.685 454.828C771.641 455.647 772.652 456.397 773.695 457.101C775.735 458.479 777.893 459.671 780.061 460.829" fill="#E16646"/>
<path d="M782.5 468.998C782.531 468.467 782.224 467.963 781.82 467.619C781.415 467.275 780.917 467.063 780.432 466.85C778.191 465.867 776.008 464.755 773.895 463.52C772.817 462.89 771.759 462.228 770.72 461.536C769.957 461.028 769.101 460.175 768.256 459.875C768.716 461.418 771.012 462.814 772.22 463.711C774.204 465.184 776.344 466.45 778.591 467.479C779.863 468.062 781.168 468.57 782.5 468.998" fill="#E16646"/>
<path d="M478.818 557.671C479.178 521.989 477.292 516.491 473.173 481.047C470.581 458.733 467.1 436.445 466.994 413.981C466.976 410.064 466.513 405.037 468.674 401.679C470.505 398.835 474.752 396.061 477.368 393.895C483.81 388.559 490.886 383.989 498.384 380.276C513.374 372.848 530.081 368.827 546.826 368.921C562.89 369.012 578.774 372.712 593.886 378.163C603.552 381.648 613.24 386.051 620.226 393.583C626.198 400.019 631.29 409.651 632.794 418.361C633.377 421.729 632.718 425.067 633.405 428.459C634.52 433.951 636.174 439.383 637.506 444.829C642.866 466.745 647.7 488.789 652 510.939C654.752 525.113 657.285 539.331 659.598 553.584" fill="#467DA8"/>
<path d="M595.923 488.719C558.599 494.699 520.487 496.279 482.85 492.505C470.908 493.1 474.498 477.937 472.568 470.136C519.127 480.389 574.108 474.735 614.936 450.233C617.415 460.692 619.894 471.151 622.371 481.611C614.091 485.531 604.968 487.271 595.923 488.719Z" fill="#6294B5"/>
<path d="M513.014 382.438C514.612 419.956 578.224 405.78 578.309 375.322C569.055 357.802 512.354 360.456 513.014 382.438" fill="#6294B5"/>
<path d="M604.772 487.016C594.475 492.014 583.923 496.484 573.172 500.41C562.447 504.324 551.187 506.73 540.503 510.57C540.914 512.287 542.495 513.727 543.274 515.342C544.352 517.578 544.99 520.183 545.586 522.583C546.807 527.5 547.384 532.579 547.28 537.646C547.211 541.043 547.018 544.927 549.471 547.279C551.255 548.989 553.914 549.322 556.376 549.55C577.647 551.522 599.024 552.353 620.386 552.051C628.93 551.929 637.471 551.626 646.002 551.14C650.268 550.898 654.531 550.61 658.791 550.276C660.744 550.123 662.751 549.783 664.706 549.948C665.36 550.003 667.283 550.793 667.856 550.279C669.094 549.169 666.018 541.686 665.56 540.091C664.416 536.112 663.215 532.15 661.956 528.206C659.438 520.316 656.691 512.502 653.719 504.772C648.464 491.107 640.668 478.728 637.072 464.378C632.811 447.375 627.668 430.379 618.946 415.07C616.999 411.652 614.715 408.176 611.214 406.382C607.16 404.304 602.143 405.264 601.312 409.775C600.216 415.731 599.919 422.064 599.588 428.111C598.898 440.742 599.36 453.434 600.967 465.98C601.872 473.051 603.14 480.076 604.772 487.016Z" fill="#345D7D"/>
<path d="M520.032 315.667C519.049 330.313 518.304 344.975 517.795 359.645C517.564 366.311 517.596 372.985 517.5 379.629C517.417 385.387 518.025 390.192 523.329 393.703C528.061 396.836 534.111 397.283 539.747 396.616C548.544 395.575 556.955 392.056 564.272 387.064C569.112 383.76 574.004 379.092 574.553 372.908C574.867 369.371 573.903 365.421 573.487 361.873C573.02 357.889 572.553 353.907 572.087 349.924C570.22 333.993 568.352 318.061 566.485 302.131C566 297.988 565.515 293.847 565.029 289.704C551.955 298.384 536.985 304.191 521.477 306.597C520.903 313.181 520.328 319.765 519.753 326.348" fill="#F8A272"/>
<path d="M518.285 371.902C518.433 373.97 518.764 376.214 520.267 377.64C521.487 378.798 523.288 379.182 524.961 379.008C526.633 378.834 528.211 378.163 529.731 377.443C546.033 369.711 558.864 354.97 564.272 337.756C565.851 332.73 566.825 327.387 565.972 322.188C565.78 321.023 565.396 319.735 564.351 319.187C563.595 318.79 562.684 318.89 561.84 319.02C552.087 320.527 542.847 324.867 535.271 331.163C528.899 336.459 521.625 344.435 519.628 352.728C518.141 358.902 517.836 365.59 518.285 371.902Z" fill="#E16646"/>
<path d="M483.198 304.727C483.262 313.543 483.649 322.356 484.357 331.144C484.769 336.244 485.337 341.5 487.828 345.971C492.674 354.672 503.534 358.163 513.489 358.512C529.701 359.083 546.052 353.131 558.104 342.272C580.921 321.715 583.56 289.366 572.462 262.023C568.324 251.827 561.689 242.004 551.717 237.351C545.4 234.403 538.233 233.762 531.269 234.072C522.473 234.464 513.566 236.382 506.085 241.024C494.632 248.132 485.146 262.114 484.156 275.615C483.446 285.3 483.126 295.015 483.198 304.727" fill="#F8A272"/>
<path d="M530.168 283.235C536.863 283.418 529.966 272.987 529.064 269.564C537.548 276.344 550.58 276.308 558.998 269.431C561.188 273.52 560.211 278.426 560.516 283.011C560.884 288.567 561.722 294.094 563.018 299.508C563.38 301.02 563.831 302.612 564.984 303.654C567.098 305.56 570.575 304.703 572.779 302.902C586.118 292 586.438 271.25 584.074 255.612C583.715 253.236 583.256 250.871 582.643 248.547C585.811 249.04 589.095 248.779 592.146 247.788C590.944 242.375 585.87 238.068 580.334 237.763C582.018 227.978 577.318 217.394 568.927 212.083C567.075 217.282 566.288 222.858 566.628 228.367C556.379 212.276 502.94 223.095 483.064 219.56C462.451 216.119 468.772 245.919 482.92 246.083C474.236 258.942 474.88 277.376 484.439 289.6C484.482 278.019 488.764 266.5 496.299 257.704C503.871 270.34 514.835 281.378 530.168 283.235" fill="#040606"/>
<path d="M503.724 316.798C503.212 317.934 502.695 319.09 502.522 320.324C502.348 321.559 502.564 322.906 503.38 323.85C504.438 325.072 506.311 325.348 507.846 324.838C509.379 324.326 510.612 323.162 511.602 321.883C515.718 316.555 516.184 308.926 515.452 302.471C515.339 301.47 515.171 300.432 514.599 299.602C514.027 298.771 512.939 298.212 511.99 298.551C510.834 298.964 510.452 300.37 510.167 301.564C508.883 306.955 505.984 311.78 503.724 316.798" fill="#E16646"/>
<path d="M531.725 301.251C531.785 302.413 532.115 303.627 533.152 304.521C534.191 305.417 536.093 305.876 537.509 305.304C538.699 304.823 539.223 303.799 539.46 302.836C539.949 300.859 539.611 298.78 538.501 296.935C537.727 295.647 535.385 294.029 533.581 295.479C531.883 296.844 531.637 299.536 531.725 301.251" fill="#040606"/>
<path d="M519.814 289.981C521.174 285.707 525.473 282.551 529.958 282.533C534.442 282.516 538.765 285.641 540.157 289.904" stroke="#040606" stroke-width="1.33333" stroke-miterlimit="10" stroke-linecap="round" stroke-linejoin="round"/>
<path d="M498.497 301.871C498.556 303.034 498.885 304.247 499.924 305.143C500.961 306.039 502.865 306.498 504.281 305.924C505.47 305.444 505.993 304.419 506.232 303.456C506.72 301.479 506.382 299.4 505.272 297.556C504.497 296.268 502.156 294.65 500.353 296.099C498.653 297.466 498.409 300.156 498.497 301.871Z" fill="#040606"/>
<path d="M504.438 283.38C502.331 280.982 498.648 280.34 495.636 281.399C492.626 282.458 490.283 284.976 488.894 287.85" stroke="#040606" stroke-width="1.33333" stroke-miterlimit="10" stroke-linecap="round" stroke-linejoin="round"/>
<path d="M519.249 330.359C518.194 330.548 517.132 330.7 516.069 330.811C511.094 331.331 506.073 331.069 501.082 330.729C501.214 334.339 500.52 337.866 500.52 341.438C501.486 341.854 502.486 342.176 503.501 342.452C507.514 337.083 513.032 332.863 519.249 330.359" fill="#040606"/>
<path d="M531.524 326.146C531.19 325.826 530.646 326.071 530.253 326.315C527.878 327.795 525.277 328.863 522.577 329.608C521.481 329.911 520.369 330.156 519.249 330.359C513.032 332.863 507.514 337.083 503.501 342.452C503.83 342.542 504.157 342.647 504.492 342.723C515.857 345.279 529.094 339.111 531.654 327.107C531.725 326.776 531.768 326.38 531.524 326.146" fill="#F1484A"/>
<path d="M582.451 322.442C579.256 323.899 573.58 325.29 571.442 321.496C570.803 320.364 570.56 319.058 570.386 317.77C569.479 311.128 570.143 304.283 572.264 297.927C573.944 292.894 576.47 285.88 582.822 285.532C585.538 285.383 588.163 286.878 589.886 288.982C591.607 291.086 592.533 293.734 593.104 296.394C594.167 301.352 594.076 306.627 592.323 311.386C590.57 316.144 587.064 320.336 582.451 322.442" fill="#F8A272"/>
<path d="M581.727 295.15C577.524 300.259 576.266 307.631 578.535 313.844" stroke="#040606" stroke-width="1.33333" stroke-miterlimit="10" stroke-linecap="round" stroke-linejoin="round"/>
<path d="M577.801 304.329C579.598 304.877 581.513 305.035 583.377 304.791" stroke="#040606" stroke-width="1.33333" stroke-miterlimit="10" stroke-linecap="round" stroke-linejoin="round"/>
<path d="M430.664 539.264C441.116 531.875 480.754 514.231 476.086 500.882C473.363 468.196 467.356 435.552 467.8 402.699C450.306 438.884 428.482 473.238 409.656 508.89C395.466 528.019 405.146 553.723 430.664 539.264Z" fill="#467DA8"/>
<path d="M455.974 519.751C456.064 521.091 456.394 522.727 457.68 523.114C458.678 523.414 459.69 522.754 460.522 522.125C465.53 518.331 470.384 514.334 475.066 510.146C475.989 509.322 476.94 508.437 477.333 507.265C477.678 506.237 477.549 505.117 477.417 504.041C475.396 487.659 473.376 471.279 471.356 454.899C470.872 450.978 471.184 445.061 469.545 441.546C467.812 442.219 467.118 445.971 466.518 447.583C465.588 450.087 464.716 452.614 463.901 455.158C462.273 460.247 460.881 465.413 459.726 470.63C457.434 480.993 456.085 491.565 455.706 502.171C455.497 508.055 455.974 513.883 455.974 519.751" fill="#345D7D"/>
<path d="M441.417 491.735C441.576 492.279 442.078 494.089 442.805 494.292C444.221 494.687 444.402 492.72 444.369 491.8C443.841 477.405 443.313 463.012 442.785 448.617C440.497 452.92 438.21 457.223 435.922 461.524C435.273 462.743 434.614 463.993 434.418 465.361C434.113 467.496 434.97 469.52 435.548 471.529C436.125 473.541 436.512 475.573 437.114 477.588C438.529 482.309 440.03 487.005 441.417 491.735" fill="#345D7D"/>
<path d="M393.417 409.502C400.343 407.964 407.16 405.943 413.803 403.455C419.24 421.133 424.679 438.81 430.116 456.487C435.244 473.154 442.413 490.166 443.555 507.611C444.137 516.506 442.656 525.796 437.733 533.227C432.811 540.658 424.039 545.866 415.168 544.991C403.304 543.82 402.752 533.711 400.309 524.138C397.44 512.888 394.932 501.546 392.792 490.135C388.512 467.315 385.697 444.218 384.38 421.036C384.196 417.791 384.041 414.544 383.916 411.295C387.101 410.799 390.271 410.2 393.417 409.502" fill="#467DA8"/>
<path d="M382.346 422.657C382.375 423.421 382.424 424.244 382.902 424.841C383.576 425.684 384.811 425.753 385.89 425.747C392.011 425.709 398.174 425.504 404.156 424.208C410.139 422.912 415.979 420.464 420.548 416.389C418.363 410.871 416.178 405.352 413.991 399.832C413.55 398.716 397.579 404.523 396.06 405.14C393.119 406.337 390.236 407.683 387.428 409.168C385.851 410.004 383.114 410.908 382.302 412.656C381.115 415.213 382.239 419.901 382.346 422.657" fill="#6294B5"/>
<path d="M419.785 532.688C421.925 533.544 423.632 535.216 425.128 536.971C425.439 537.336 425.755 537.715 426.177 537.94C426.6 538.164 427.165 538.196 427.528 537.884C427.845 537.611 427.931 537.158 427.953 536.74C428.125 533.574 425.629 530.619 422.571 529.776C419.857 529.028 414.124 529.886 412.949 532.952C413.731 533.128 414.613 532.55 415.419 532.366C416.883 532.028 418.383 532.127 419.785 532.688" fill="#345D7D"/>
<path d="M376.108 403.109C377.732 406.797 379.896 410.355 383.057 412.855C386.217 415.356 390.508 416.665 394.38 415.551C395.64 415.187 396.829 414.583 398.118 414.339C400.012 413.979 401.977 414.481 403.821 413.875C405.421 413.348 407.186 413.357 408.729 412.613C410.934 411.549 412.306 409.319 413.444 407.151C414.58 404.981 415.674 402.672 417.621 401.187C419.41 399.82 421.828 399.232 423.18 397.431C424.177 396.104 424.409 394.336 425.329 392.955C427.276 390.032 431.484 389.767 434.27 387.629C435.338 386.811 436.234 385.392 435.669 384.171C435.133 383.016 433.637 382.733 432.365 382.701C427.526 382.579 422.661 383.957 418.608 386.6C417.469 387.341 416.224 388.223 414.885 387.989C413.69 387.781 412.826 386.731 412.264 385.656C411.701 384.581 411.312 383.393 410.52 382.475C409.461 381.248 407.802 380.671 406.184 380.581C404.497 380.489 403.022 381.04 401.4 381.245C399.984 381.425 398.306 380.757 396.89 380.52C393.578 379.967 390.22 379.688 386.861 379.688C382.937 379.688 378.533 379.797 374.756 380.968C371.26 382.051 372.022 385.78 372.321 388.728C372.824 393.68 374.1 398.553 376.108 403.109" fill="#F8A272"/>
<path d="M376.201 389.03C376.962 390.204 377.617 391.486 378.454 392.602C379.272 393.691 379.644 395.236 380.142 396.506C380.668 397.847 381.261 399.271 382.462 400.067C384.165 401.195 386.446 400.66 388.341 399.899C388.708 400.755 389.63 401.23 390.522 401.498C391.416 401.767 392.366 401.911 393.153 402.412C394.59 403.33 395.212 405.276 396.774 405.96C398.178 406.574 399.866 405.892 400.93 404.788C402.177 403.496 402.641 401.932 403.516 400.423C404.462 398.788 405.768 397.383 407.177 396.136C408.614 394.866 410.178 393.758 411.673 392.559C412.897 391.578 414.354 391.316 415.146 389.78C415.42 389.251 415.585 388.651 415.513 388.059C415.34 386.663 413.961 386.472 412.822 386.166C410.953 385.664 409.228 384.636 407.896 383.232C406.465 381.724 405.436 379.758 403.622 378.739C401.544 377.57 398.94 377.943 396.678 378.704C393.59 379.743 390.748 381.424 387.656 382.451C384.564 383.479 380.989 383.779 378.188 382.116C377.153 381.503 375.738 380.59 374.473 380.91C372.038 381.526 374.108 385.83 374.837 386.946C375.29 387.639 375.749 388.332 376.201 389.03" fill="#E16646"/>
<path d="M432.234 373.023C412.64 375.264 385.002 379.637 365.603 383.193C363.944 383.497 362.227 383.831 360.858 384.813C359.487 385.797 358.571 387.628 359.172 389.203C359.687 390.549 361.107 391.315 362.479 391.759C367.026 393.232 371.959 392.443 376.671 391.64C397.31 388.124 417.948 384.608 438.587 381.092L432.234 373.023" fill="#040606"/>
<path d="M439.468 366.755C443.594 366.08 447.828 366.087 451.945 366.835C454.197 367.246 456.45 367.883 458.361 369.142C459.897 370.155 461.771 372.011 462.017 373.948C462.27 375.958 460.829 378.124 459.554 379.544C456.533 382.911 451.078 384.63 446.788 385.4C442.202 386.226 437.416 386.152 432.854 385.211C429.433 384.504 425.59 383.307 423.045 380.782C422.169 379.912 421.436 378.827 421.308 377.571C421.054 375.107 422.54 373.99 424.426 372.711C428.924 369.662 434.104 367.632 439.468 366.755" fill="#040606"/>
<path d="M445.884 368.632C447.997 368.502 450.133 368.46 452.219 368.827C454.303 369.194 456.351 369.992 457.948 371.382C458.521 371.879 459.053 372.492 459.187 373.239C459.44 374.658 458.215 375.876 457.053 376.727C454.871 378.326 452.493 379.658 449.991 380.683C443.52 383.336 436.088 383.867 429.485 381.559C428.492 381.211 427.503 380.792 426.7 380.111C425.897 379.431 425.296 378.451 425.281 377.399C425.244 374.84 429.503 372.839 431.431 371.914C434.288 370.544 437.38 369.718 440.499 369.214C442.283 368.926 444.081 368.743 445.884 368.632" fill="#F1484A"/>
<path d="M431.313 374.91C431.262 375.214 431.265 375.564 431.484 375.78C431.657 375.952 431.921 375.991 432.164 375.994C432.706 375.998 433.249 375.86 433.725 375.6C434.074 375.408 434.393 375.146 434.594 374.802C434.796 374.459 434.869 374.028 434.737 373.654C434.041 371.676 431.513 373.684 431.313 374.91" fill="#F39718"/>
<path d="M438.966 372.308C439.18 372.539 439.515 372.608 439.83 372.623C440.478 372.652 441.134 372.487 441.692 372.154C441.892 372.035 442.09 371.883 442.179 371.667C442.304 371.36 442.17 370.988 441.914 370.778C441.07 370.082 437.732 370.986 438.966 372.308Z" fill="#F39718"/>
<path d="M437.277 376.09C437.083 376.462 436.993 376.91 437.131 377.306C437.237 377.611 437.532 377.887 437.852 377.834C438.013 377.806 438.151 377.702 438.273 377.594C438.741 377.186 439.123 376.682 439.388 376.122C439.485 375.916 439.569 375.699 439.579 375.471C439.588 375.244 439.515 375.004 439.341 374.856C439.164 374.703 438.904 374.668 438.676 374.727C438.079 374.876 437.548 375.572 437.277 376.09" fill="#F39718"/>
<path d="M432.822 380.075C433.069 380.11 433.345 380.1 433.534 379.939C433.756 379.752 433.786 379.418 433.717 379.136C433.614 378.72 433.329 378.362 432.969 378.127C432.473 377.804 430.732 377.342 430.84 378.446C430.924 379.306 432.068 379.966 432.822 380.075" fill="#F39718"/>
<path d="M442.274 379.407C441.988 379.561 441.686 379.804 441.702 380.129C441.714 380.383 441.932 380.591 442.174 380.669C442.416 380.748 442.678 380.725 442.931 380.699C443.663 380.62 444.415 380.504 445.043 380.119C445.227 380.005 445.402 379.867 445.518 379.684C445.932 379.025 445.219 378.396 444.574 378.536C443.815 378.699 442.952 379.036 442.274 379.407Z" fill="#F39718"/>
<path d="M444.154 374.496C444.079 374.592 444.006 374.7 444.002 374.821C443.993 375.088 444.297 375.241 444.553 375.313C444.941 375.423 445.338 375.499 445.739 375.543C445.983 375.569 446.245 375.58 446.458 375.461C446.678 375.339 446.806 375.105 446.922 374.884C447.055 374.632 447.192 374.357 447.144 374.077C447.04 373.471 446.289 373.12 445.759 373.304C445.134 373.521 444.559 373.98 444.154 374.496" fill="#F39718"/>
<path d="M450.968 372.842C451.213 373.026 451.512 373.178 451.813 373.127C452.15 373.07 452.405 372.756 452.469 372.422C452.532 372.086 452.432 371.736 452.27 371.435C451.945 370.828 450.657 369.659 449.934 370.34C449.238 370.995 450.445 372.451 450.968 372.842" fill="#F39718"/>
<path d="M450.938 375.808C450.554 376.137 450.33 376.647 450.346 377.152C450.35 377.284 450.374 377.424 450.458 377.525C450.55 377.637 450.699 377.684 450.842 377.708C451.319 377.787 451.826 377.655 452.204 377.355C452.583 377.053 452.827 376.589 452.859 376.108C452.931 375.032 451.42 375.393 450.938 375.808Z" fill="#F39718"/>
<path d="M372.861 373.502C373.259 372.783 373.76 372.139 374.381 371.698C375.817 370.68 377.992 370.406 379.567 371.246C380.321 369.18 382.239 367.586 384.407 367.22C386.573 366.854 388.908 367.73 390.299 369.432C391.149 367.395 393.245 365.94 395.451 365.855C397.657 365.77 399.859 367.058 400.865 369.023C400.685 367.78 401.936 366.692 403.188 366.6C404.44 366.507 405.629 367.124 406.692 367.792C409.891 369.803 412.713 372.5 414.516 375.822C416.319 379.142 417.041 383.112 416.135 386.78C415.792 388.163 415.171 389.56 414.003 390.376C412.836 391.194 411.023 391.199 410.136 390.083C409.215 392.184 407.084 393.702 404.796 393.887C402.509 394.071 400.163 392.914 398.916 390.988C398.336 392.879 397.041 394.671 395.163 395.292C393.284 395.914 390.871 394.963 390.364 393.051C390.361 394.631 389.52 396.186 388.197 397.051C386.875 397.915 385.112 398.064 383.664 397.432C381.813 396.624 380.665 394.746 379.935 392.863C379.205 390.982 378.763 388.97 377.737 387.231C377.031 386.035 376.064 384.996 375.001 384.11C373.872 383.166 372.692 382.546 371.376 381.866C371.389 379.99 371.404 378.095 371.833 376.268C372.039 375.392 372.371 374.39 372.861 373.502" fill="#F8A272"/>
<path d="M403.453 371.192C405.573 373.882 407 377.064 407.999 380.34C408.999 383.615 409.588 386.999 410.175 390.374C410.984 387.254 410.587 383.908 409.516 380.868C408.445 377.83 406.731 375.058 404.879 372.419C404.116 371.332 403.008 369.579 401.672 369.162C401.625 369.544 402.147 369.79 402.392 370.015C402.781 370.374 403.127 370.778 403.453 371.192" fill="#E16646"/>
<path d="M398.819 391.288C399.333 388.623 398.815 385.848 397.868 383.304C396.921 380.76 395.56 378.395 394.316 375.983C393.159 373.736 392.119 371.128 390.391 369.245C390.731 370.435 391.736 371.619 392.313 372.728C393.048 374.143 393.709 375.596 394.313 377.072C395.513 380.008 396.483 383.032 397.367 386.076C397.869 387.808 398.344 389.548 398.819 391.288Z" fill="#E16646"/>
<path d="M390.088 393.689C390.365 392.807 390.281 391.844 390.031 390.953C389.781 390.061 389.372 389.225 388.996 388.38C387.64 385.339 386.673 382.136 385.337 379.085C384.02 376.055 382.26 373.097 379.649 371.007C381.796 373.157 383.225 376.333 384.519 379.075C385.947 382.1 387.148 385.227 388.265 388.377C388.891 390.141 389.491 391.915 390.088 393.689" fill="#E16646"/>
<path d="M456.416 499.601C454.073 500.529 452.568 502.876 452.685 505.392C453.018 512.557 454.992 520.577 459.176 526.02C463.728 531.944 471.38 536.719 478.288 539.364C485.009 541.938 492.222 543.063 499.416 543.326C508.01 543.639 516.744 542.717 524.773 539.628C533.045 536.447 543.226 527.124 547.397 519.305C549.604 515.168 550.277 511.355 549.41 501.929C545.901 497.769 540.314 496.511 535.062 495.088C509.742 488.236 480.91 489.907 456.416 499.601" fill="#040606"/>
<path d="M543.331 503.762C543.331 507.222 524.471 510.027 501.205 510.027C477.94 510.027 459.08 507.222 459.08 503.762C459.08 500.302 477.94 497.496 501.205 497.496C524.471 497.496 543.331 500.302 543.331 503.762Z" fill="#F1484A"/>
<path d="M528.696 503.687C528.668 504.211 529.179 504.601 529.672 504.78C530.59 505.115 531.666 505.063 532.539 504.62C533.258 504.255 533.734 503.371 533.092 502.68C532.222 501.743 528.772 502.256 528.696 503.687" fill="#F39718"/>
<path d="M511.618 499.304C511.234 499.58 510.938 500.052 511.052 500.511C511.134 500.848 511.424 501.104 511.744 501.238C512.064 501.372 512.417 501.403 512.762 501.432C513.485 501.492 514.208 501.554 514.93 501.615C515.484 501.662 516.101 501.688 516.524 501.33C517.517 500.487 516.528 498.88 515.44 498.786C514.906 498.739 514.356 498.867 513.821 498.866C513.041 498.864 512.288 498.823 511.618 499.304" fill="#F39718"/>
<path d="M487.735 503.93C487.396 504.202 487.081 504.522 486.915 504.923C486.748 505.323 486.755 505.818 487.021 506.159C487.38 506.618 488.052 506.664 488.631 506.607C490.081 506.467 491.491 505.924 492.661 505.056C492.96 504.835 493.256 504.574 493.363 504.218C493.724 503.007 492.032 502.275 491.079 502.435C489.94 502.627 488.629 503.208 487.735 503.93" fill="#F39718"/>
<path d="M464.736 503.756C464.721 504.087 464.912 504.406 465.177 504.604C465.443 504.803 465.773 504.894 466.103 504.93C467.297 505.063 468.452 504.523 469.532 503.998C471.141 503.216 469.455 501.766 468.283 501.759C467.209 501.752 464.797 502.427 464.736 503.756Z" fill="#F39718"/>
<path d="M478.42 501.127C478.041 501.263 477.61 501.475 477.548 501.872C477.504 502.155 477.68 502.436 477.917 502.596C478.153 502.756 478.442 502.816 478.725 502.861C479.806 503.033 480.917 503.023 481.997 502.839C482.905 502.683 484.297 502.427 484.997 501.777C485.58 501.239 485.308 500.641 484.672 500.349C483.884 499.987 482.958 500.068 482.129 500.195C480.866 500.385 479.622 500.699 478.42 501.127" fill="#F39718"/>
<path d="M501.489 505.73C501.08 505.868 500.627 506.088 500.528 506.508C500.445 506.864 500.671 507.236 500.979 507.432C501.287 507.628 501.661 507.686 502.024 507.727C504.005 507.95 506.025 507.814 507.959 507.327C508.603 507.164 509.375 506.602 508.691 505.966C508.247 505.552 507.319 505.378 506.732 505.27C505.028 504.956 503.119 505.182 501.489 505.73Z" fill="#F39718"/>
<path d="M498.044 500.028C497.628 500.269 497.218 500.721 497.38 501.173C497.532 501.601 498.074 501.712 498.525 501.756C499.688 501.869 500.849 501.983 502.012 502.096C502.393 502.133 502.813 502.161 503.128 501.94C504.302 501.115 502.632 499.836 501.818 499.643C500.652 499.367 499.084 499.427 498.044 500.028" fill="#F39718"/>
<path d="M520.426 502.68C520.065 502.9 519.698 503.186 519.598 503.596C519.5 504.003 519.702 504.439 520.024 504.707C520.344 504.974 520.764 505.095 521.178 505.147C522.096 505.262 523.049 505.063 523.845 504.592C524.97 503.927 525.569 502.114 523.976 501.548C522.969 501.192 521.236 502.184 520.426 502.68" fill="#F39718"/>
<path d="M475.423 506.742C475.798 507.183 476.436 507.268 477.012 507.322C477.502 507.368 477.992 507.414 478.482 507.46C478.896 507.499 479.322 507.536 479.724 507.43C480.126 507.324 480.508 507.042 480.615 506.639C480.73 506.198 480.484 505.726 480.127 505.442C479.35 504.823 477.955 504.508 476.968 504.576C475.916 504.648 474.487 505.548 475.423 506.742" fill="#F39718"/>
<path d="M514.326 505.479C513.964 505.552 513.57 505.686 513.398 506.012C513.216 506.363 513.377 506.818 513.676 507.076C513.974 507.335 514.377 507.436 514.766 507.498C515.64 507.634 516.538 507.602 517.4 507.406C517.54 507.374 517.684 507.335 517.797 507.246C518.421 506.75 517.59 505.715 517.074 505.488C516.298 505.148 515.118 505.315 514.326 505.479" fill="#F39718"/>
<path d="M518.231 508.699C515.21 509.742 516.078 513.038 518.714 513.684C522.724 515.042 527.84 512.394 531.372 515.339C526.198 519.235 513.764 513.616 506.571 512.732C501.836 512.299 500.582 518.65 504.894 520.314C498.83 517.39 496.808 528.139 503.516 527.622C498.594 527.518 500.082 534.231 504.138 534.272C501.607 538.038 505.347 540.499 508.612 541.66C514.387 543.714 520.848 544.087 526.923 544.232C533.259 544.383 539.73 544.16 545.972 542.991C550.964 542.058 555.779 540.572 559.091 536.432C561.799 533.046 563.384 528.127 562.519 523.802C561.891 520.666 560.078 517.888 557.884 515.614C552.58 510.114 544.908 506.855 537.448 505.682C530.979 504.664 523.922 505.212 518.231 508.699" fill="#F8A272"/>
<path d="M518.735 523.304C523.643 523.664 528.565 524.026 533.483 523.811C534.021 523.787 534.703 523.638 534.795 523.107C534.899 522.504 534.135 522.151 533.528 522.076C531.739 521.854 529.931 522.127 528.139 522.322C524.348 522.732 520.52 522.787 516.719 522.491C512.895 522.194 509.275 521.294 505.529 520.594C506.773 521.886 509.803 522.214 511.499 522.516C513.889 522.942 516.315 523.127 518.735 523.304Z" fill="#E16646"/>
<path d="M527.505 531.919C529.092 531.845 530.693 531.703 532.2 531.199C532.542 531.084 532.926 530.896 532.998 530.541C533.062 530.223 532.821 529.905 532.524 529.771C532.226 529.636 531.888 529.641 531.562 529.648C524.818 529.789 518.07 529.677 511.334 529.311C508.696 529.168 506.049 528.947 503.577 527.943C509.074 530.616 515.962 531.616 522.005 531.912C523.837 532.001 525.673 532.004 527.505 531.919" fill="#E16646"/>
<path d="M504.385 533.919C512.344 537.2 520.951 538.902 529.559 538.898C529.881 538.897 530.223 538.891 530.499 538.721C530.773 538.552 530.939 538.16 530.755 537.895C530.583 537.647 530.228 537.635 529.927 537.645C520.848 537.983 511.709 536.591 503.143 533.565" fill="#E16646"/>
<path d="M674.335 513.128C674.103 518.474 672.999 523.936 669.676 526.674C662.808 532.331 653.965 534.953 645.256 536.771C616.617 542.747 587.025 541.453 557.801 540.131C557.481 537.668 554.159 511.123 553.328 511.346C576.476 505.166 600.015 500.304 623.365 494.939C612.903 477.966 606.157 458.758 603.451 439.015C602.484 431.963 601.64 424.891 601.435 417.768C601.213 410.118 601.125 400.886 605.16 394.07C606.121 392.446 607.385 391.548 608.696 390.286C609.824 389.199 610.771 387.502 612.641 387.679C613.881 387.796 614.973 388.516 615.987 389.24C626.109 396.475 634.203 406.255 640.807 416.802C647.411 427.347 652.608 438.699 657.785 450.014C665.728 467.37 672.407 484.247 674.033 503.41C674.255 506.028 674.491 509.552 674.335 513.128" fill="#467DA8"/>
<path d="M555.352 541.736C559.943 541.614 564.534 541.492 569.124 541.371C567.102 530.114 565.079 518.855 563.056 507.598C563.056 507.994 556.012 509.908 555.272 510.151C554.254 510.484 552.946 510.522 552.739 511.614C552.519 512.788 553.08 514.571 553.211 515.77C553.811 521.275 554.318 526.791 554.734 532.314C554.97 535.452 555.175 538.594 555.352 541.736" fill="#6294B5"/>
<path d="M642.359 507.162C643.412 508.164 644.783 509.287 646.151 508.794C647.131 508.439 647.667 507.312 647.627 506.271C647.588 505.23 647.091 504.263 646.54 503.378C644.084 499.434 640.294 496.339 635.938 494.722C633.244 493.723 630.346 493.292 627.478 493.438C626.594 493.483 622.266 493.599 622.843 494.788C623.275 495.68 626.791 496.244 627.68 496.632C630.122 497.7 632.411 499.279 634.587 500.804C637.33 502.727 639.931 504.852 642.359 507.162" fill="#345D7D"/>
<path d="M659.486 514.681C659.14 517.041 659.461 519.651 661.053 521.425C661.289 521.689 661.583 521.945 661.936 521.965C662.759 522.011 663.056 520.908 663.079 520.085C663.152 517.535 663.285 514.953 664.035 512.513C664.784 510.075 666.219 507.759 668.392 506.421C668.891 506.116 669.488 505.765 669.532 505.183C669.782 501.848 663.911 506.235 663.379 506.793C661.324 508.947 659.919 511.732 659.486 514.681" fill="#345D7D"/>
<path d="M593.795 507.431C580.632 507.431 569.963 496.76 569.963 483.598V458.046H617.628V483.598C617.628 496.76 606.958 507.431 593.795 507.431Z" fill="#D1E2E8"/>
<path d="M613.282 539.267H574.31C571.908 539.267 569.963 541.212 569.963 543.614H617.628C617.628 541.212 615.682 539.267 613.282 539.267" fill="#D1E2E8"/>
<path d="M597.461 539.902H589.866V483.011H597.461V539.902Z" fill="#D1E2E8"/>
<path d="M573.793 473.348H614.301V483.675C614.301 494.86 605.233 503.928 594.048 503.928C582.861 503.928 573.793 494.86 573.793 483.675V473.348" fill="#F1484A"/>
<path d="M573.794 473.348C573.75 475.565 576.09 477.773 578.298 477.584C579.926 477.445 581.311 476.331 582.904 475.971C585.103 475.473 587.343 476.464 589.323 477.539C591.304 478.612 593.347 479.832 595.599 479.833C597.983 479.836 600.124 478.479 602.15 477.22C604.174 475.961 606.422 474.713 608.792 474.969C609.594 475.055 610.367 475.313 611.162 475.444C611.958 475.576 612.819 475.569 613.515 475.163C614.211 474.756 614.302 474.56 614.35 473.112" fill="#B1393A"/>
<path d="M587.294 496.592C586.67 496.788 585.994 497.065 585.717 497.657C585.458 498.21 585.646 498.892 586.035 499.362C586.425 499.832 586.981 500.128 587.537 500.382C591.979 502.407 597.281 502.297 601.762 500.355C602.314 500.117 602.871 499.838 603.258 499.376C603.643 498.915 603.815 498.226 603.522 497.7C603.331 497.36 602.982 497.142 602.637 496.959C600.481 495.823 597.697 495.574 595.293 495.496C592.59 495.408 589.873 495.778 587.294 496.592" fill="#B1393A"/>
<path d="M614.349 462.037H573.793V470.09H614.349V462.037Z" fill="#EFEFED"/>
<path d="M942.08 571.052H53.8691C45.7113 571.052 39.0977 564.438 39.0977 556.28C39.0977 548.121 45.7113 541.508 53.8691 541.508H942.08C950.238 541.508 956.851 548.121 956.851 556.28C956.851 564.438 950.238 571.052 942.08 571.052Z" fill="#F39718"/>
<path d="M903.467 591.175H107.9C96.7858 591.175 87.7764 582.165 87.7764 571.052H923.59C923.59 582.165 914.58 591.175 903.467 591.175Z" fill="#F3BD57"/>
<path d="M313.949 512.763C312.87 509.674 312.197 506.324 312.901 503.128C313.605 499.932 315.941 496.942 319.136 496.234C323.557 495.256 327.63 498.666 330.88 501.819C331.608 496.535 334.532 491.51 338.997 488.591C343.462 485.672 349.44 485.047 354.262 487.327C359.084 489.608 362.449 494.86 362.14 500.186C365.341 497.044 368.605 493.856 372.578 491.775C376.552 489.695 381.41 488.844 385.545 490.583C389.68 492.322 392.622 497.127 391.318 501.418C395.7 499.176 400.765 496.884 405.356 498.659C409.237 500.159 411.629 504.438 411.586 508.598C411.542 512.759 409.38 516.696 406.39 519.59C403.4 522.482 399.636 524.444 395.8 526.058C388.174 529.267 380.022 531.251 371.765 531.763C363.517 532.272 355.256 531.323 347.046 530.374C342.536 529.852 338.021 529.219 333.498 528.823C331.002 528.604 328.282 528.88 325.848 528.218C323.22 527.502 321.405 525.539 319.774 523.455C317.861 521.007 313.949 516.035 313.949 512.763" fill="#5A9931"/>
<path d="M327.94 508.688C330.848 507.062 334.342 506.29 337.569 507.122C340.796 507.954 343.636 510.578 344.202 513.862C346.384 512.474 349.376 512.77 351.529 514.2C353.684 515.632 355.061 518.027 355.717 520.528C356.373 523.031 356.373 525.655 356.254 528.239C356.225 528.844 356.161 529.516 355.708 529.92C355.357 530.235 354.857 530.304 354.388 530.358C344.401 531.484 334.266 531.298 324.328 529.803C323.061 529.614 321.742 529.378 320.725 528.6C317.118 525.843 320.03 521.362 320.82 518.07C321.792 514.024 324.296 510.728 327.94 508.688" fill="#B1393A"/>
<path d="M392.797 511.874C391.177 511.208 389.385 511.084 387.636 511.14C385.718 511.2 383.756 511.483 382.089 512.431C380.55 513.304 379.334 514.732 378.718 516.391C378.078 514.758 375.968 514.096 374.281 514.572C372.593 515.048 371.281 516.37 370.206 517.755C367.462 521.292 365.708 525.755 366.1 530.215C375.953 528.535 386.016 528.075 395.981 528.848C397.252 528.947 398.588 529.055 399.748 528.526C403.31 526.896 402.524 522.135 400.277 519.851C397.626 517.158 396.59 513.432 392.797 511.874" fill="#B1393A"/>
<path d="M274.504 528.275C270.828 528.137 267.552 526.04 264.484 524.013C258.305 519.932 251.789 515.451 248.982 508.6C248.161 506.593 247.698 504.324 248.368 502.263C249.592 498.496 254.264 496.789 258.152 497.539C262.041 498.288 265.304 500.833 268.402 503.301C267.185 499.672 269.464 495.467 272.918 493.819C276.373 492.171 280.592 492.759 283.948 494.599C287.305 496.439 289.918 499.385 292.158 502.488C294.4 505.592 296.342 508.913 298.76 511.88C301.616 507.889 306.722 505.632 311.597 506.207C316.47 506.78 320.913 510.161 322.765 514.707C323.37 516.193 324.028 518.065 325.618 518.28C326.521 518.401 327.372 517.9 328.236 517.613C331.032 516.689 334.173 518.119 336.116 520.332C338.058 522.544 339.058 525.407 340.014 528.192C322.474 530.947 304.617 530.668 286.864 530.381C281.328 530.292 275.385 530.072 270.944 526.764" fill="#79CB43"/>
<path d="M379.654 520.618C383.1 518.314 387.79 518.018 391.497 519.872C393.192 516.176 394.974 512.36 398.054 509.707C401.134 507.054 405.902 505.898 409.306 508.12C410.014 508.582 410.708 509.195 411.553 509.204C412.306 509.212 412.966 508.73 413.558 508.263C416.79 505.712 419.902 502.908 423.644 501.19C427.385 499.471 431.997 499.006 435.5 501.171C439.782 503.82 441.132 509.64 440.148 514.58C438.95 520.6 434.769 525.951 429.218 528.571C425.261 530.438 420.814 530.936 416.454 531.302C406.676 532.12 396.844 532.395 387.038 531.936C384.522 531.819 376.05 532.552 374.686 530.143C373.028 527.214 377.534 522.036 379.654 520.618" fill="#79CB43"/>
<path d="M440.209 535.131H258.633C256.649 535.131 255.04 533.522 255.04 531.536C255.04 529.552 256.649 527.943 258.633 527.943H440.209C442.195 527.943 443.803 529.552 443.803 531.536C443.803 533.522 442.195 535.131 440.209 535.131" fill="#040606"/>
<path d="M407.116 541.389H291.727C287.757 541.389 284.54 538.172 284.54 534.203H414.304C414.304 538.172 411.085 541.389 407.116 541.389Z" fill="#040606"/>
<path d="M210.9 456.428C210.536 458.404 209.638 460.347 208.072 461.606C207.628 461.963 207.12 462.267 206.556 462.356C205.994 462.446 205.367 462.287 205 461.851C204.606 461.383 204.579 460.711 204.631 460.102C204.832 457.752 205.951 456.044 207.307 454.208C207.763 453.594 208.028 453.079 208.847 452.956C209.9 452.799 210.699 453.518 210.935 454.518C211.082 455.142 211.016 455.798 210.9 456.428ZM210.174 449.859C207.879 449.468 205.908 451.434 204.535 453.312C202.063 456.699 200.048 460.394 198.068 464.09C195.728 468.455 193.426 472.84 191.16 477.244C187.218 484.906 182.48 492.735 179.476 500.816C178.616 503.128 178.392 506.387 181.234 507.366C184.582 508.519 186.859 504.915 188.204 502.488C195.922 488.559 203.639 474.628 211.356 460.698C212.396 458.822 213.462 456.852 213.524 454.708C213.586 452.566 212.287 450.218 210.174 449.859Z" fill="#040606"/>
<path d="M150.313 480.984C144.159 481.64 137.936 483.243 132.938 486.892C129.92 489.096 127.459 491.962 125.028 494.799C123.696 496.354 122.29 498.1 122.297 500.147C122.304 502.359 123.961 504.194 125.627 505.648C132.281 511.462 140.689 515.014 149.329 516.868C157.968 518.723 166.875 518.956 175.708 518.732C184.761 518.503 194.192 517.683 201.94 512.996C205.215 511.015 210.024 506.55 206.685 502.662C203.525 498.982 199.485 495.707 195.531 492.93C187.177 487.067 177.48 483.122 167.407 481.484C161.764 480.567 156 480.378 150.313 480.984" fill="#F3BD57"/>
<path d="M134.854 492.511C137.02 490.867 139.27 489.304 141.75 488.193C147.032 485.827 153.01 485.641 158.794 485.823C169.614 486.164 180.834 487.812 189.81 493.864C182.666 491.299 175.314 489.316 167.849 487.94C164.004 487.231 160.108 486.683 156.198 486.772C150.35 486.905 144.573 488.572 139.48 491.429C136.901 492.875 134.494 494.627 132.334 496.644C131.255 497.652 130.237 498.725 129.292 499.86C128.86 500.379 127.222 502.307 127.347 500.299C127.428 498.991 129.772 496.961 130.649 496.089C131.955 494.791 133.389 493.624 134.854 492.511" fill="#F39718"/>
<path d="M144.462 494.391C156.557 489.172 171.096 490.012 182.509 496.588C180.25 495.77 177.989 494.95 175.674 494.308C162.382 490.62 147.488 493.22 136.229 501.192C136.181 501.226 136.313 500.323 136.425 500.166C136.618 499.894 137.037 499.848 137.282 499.623C138.012 498.954 138.532 498.074 139.308 497.415C140.833 496.12 142.634 495.179 144.462 494.391" fill="#F39718"/>
<path d="M163.369 496.496C168.241 496.284 173.171 498.043 176.807 501.292C176.345 501.763 175.584 501.812 174.957 501.608C174.331 501.404 173.799 500.991 173.253 500.62C170.007 498.41 165.927 497.536 162.023 497.974C158.12 498.411 154.404 500.116 151.356 502.594C151.112 502.792 150.857 503.002 150.549 503.058C150.24 503.114 149.867 502.948 149.816 502.638C149.757 502.287 150.692 502.08 150.935 501.904C151.469 501.519 151.928 500.984 152.452 500.574C153.473 499.77 154.579 499.071 155.743 498.491C158.111 497.31 160.724 496.612 163.369 496.496" fill="#F39718"/>
<path d="M208.612 483.2C215.126 481.848 222.051 481.381 228.308 483.641C234.564 485.901 239.984 491.38 240.603 498.004C241.122 503.551 238.224 509.021 234.051 512.709C229.876 516.399 224.56 518.536 219.212 520.093C209.94 522.791 200.096 523.936 190.574 522.332C185.492 521.477 180.53 519.809 176.014 517.32C173.726 516.06 171.552 514.587 169.552 512.905C167.604 511.267 164.988 509.74 167.006 507.297C173.551 499.375 182.7 493.073 191.95 488.753C197.266 486.271 202.866 484.392 208.612 483.2" fill="#F39718"/>
<path d="M206.541 489.315C210.804 488.28 215.192 487.58 219.569 487.86C223.947 488.14 228.336 489.452 231.819 492.119C235.303 494.786 237.787 498.898 237.965 503.28C236.481 503.084 235.836 501.359 235.267 499.975C233.445 495.556 229.467 492.235 224.989 490.564C220.512 488.894 215.577 488.751 210.848 489.443C206.12 490.134 201.549 491.626 197.023 493.159C194.207 494.114 191.351 495.108 188.936 496.847C187.425 497.935 186.123 499.288 184.628 500.399C184.06 500.822 180.088 503.219 180.76 500.678C180.959 499.926 182.685 499.252 183.317 498.872C184.312 498.272 185.32 497.695 186.34 497.138C190.452 494.891 194.755 492.994 199.185 491.47C201.603 490.639 204.059 489.919 206.541 489.315Z" fill="#F3BD57"/>
<path d="M208.714 494.056C213.722 493.093 219.096 493.211 223.689 495.425C225.148 496.128 226.537 497.06 227.489 498.368C228.44 499.677 228.904 501.409 228.426 502.956C226.509 500.729 224.424 498.591 221.89 497.1C217.122 494.295 211.142 494.071 205.813 495.553C203.026 496.328 200.378 497.539 197.884 498.995C195.689 500.276 193.602 502.425 191.333 503.427C191.629 500.881 196.27 498.807 198.228 497.767C201.513 496.019 205.058 494.759 208.714 494.056Z" fill="#F3BD57"/>
<path d="M120.074 499.718H240.8C243.847 499.718 245.973 502.736 244.949 505.604L239.881 519.803C235.235 532.819 222.908 541.508 209.087 541.508H152.268C138.795 541.508 126.702 533.244 121.806 520.692L115.969 505.724C114.843 502.836 116.973 499.718 120.074 499.718" fill="#040606"/>
<path d="M733.944 500.092C734.972 498.412 736.32 496.648 738.267 496.355C740.972 495.95 743.256 498.563 745.982 498.806C748.332 499.016 750.43 497.444 752.247 495.938C754.064 494.431 756.107 492.816 758.466 492.92C760.436 493.006 762.272 494.454 762.815 496.35C763.339 498.176 762.93 500.571 764.528 501.6C765.515 502.236 766.831 501.97 767.9 501.484C768.97 500.999 769.976 500.312 771.136 500.131C773.287 499.795 775.399 501.395 776.219 503.411C777.038 505.427 776.802 507.724 776.211 509.818C774.854 514.626 771.7 518.84 767.69 521.816C763.678 524.794 758.847 526.571 753.906 527.3C747.642 528.224 741.139 527.486 735.242 525.18C732.452 524.09 727.57 521.636 727.138 518.19C727.044 517.444 727.456 516.754 727.639 516.043C727.907 515 728.11 513.942 728.396 512.902C728.978 510.794 729.698 508.723 730.55 506.708C731.515 504.423 732.65 502.208 733.944 500.092" fill="#79CB43"/>
<path d="M735.1 524.227C731.625 524.992 728.014 525.108 724.494 524.608C723.093 524.41 721.854 523.876 720.45 523.899C719.118 523.92 717.728 523.871 716.698 522.898C715.774 522.022 715.481 520.674 715.384 519.403C715.136 516.132 715.926 512.799 717.572 509.964C718.344 508.635 719.31 507.871 720.326 506.799C721.381 505.686 722.306 504.512 723.894 504.166C725.649 503.78 727.432 504.607 728.962 505.55C730.493 506.491 732.008 507.599 733.784 507.864C735.904 508.18 738.014 507.227 739.785 506.02C741.556 504.812 743.144 503.324 745.046 502.338C746.612 501.526 748.656 501.13 750.042 502.216C751.096 503.042 751.504 504.528 752.632 505.248C754.052 506.154 755.909 505.467 757.441 504.764C758.972 504.06 760.826 503.37 762.25 504.27C763.63 505.142 763.837 507.187 763.121 508.654C762.405 510.122 761.02 511.131 759.661 512.036C756.738 513.983 753.69 515.732 750.632 517.458C745.693 520.243 740.636 523.007 735.1 524.227Z" fill="#5A9931"/>
<path d="M672.816 504.024C672.441 499.36 672.863 494.446 674.965 490.43C677.067 486.412 681.116 483.518 685.165 484.16C687.975 484.606 690.413 486.622 692.401 488.94C697.936 495.396 700.78 504.759 699.94 513.759C699.679 516.558 698.98 519.508 697.105 521.327C695.507 522.878 693.308 523.346 691.215 523.383C687.416 523.452 683.619 522.236 680.365 519.998C678.991 519.052 677.615 517.919 676.365 516.766C675.167 515.662 674.752 513.938 674.296 512.314C673.541 509.623 673.043 506.839 672.816 504.024" fill="#F3BD57"/>
<path d="M677.441 485.339C675.309 487.162 673.632 489.47 672.284 491.93C671.696 493.003 671.157 494.14 671.048 495.36C670.939 496.579 671.329 497.905 672.307 498.643C673.373 499.448 674.904 499.382 676.119 498.824C677.333 498.268 678.303 497.3 679.244 496.352C679.891 497.575 680.548 498.812 681.497 499.816C682.447 500.82 683.743 501.579 685.124 501.576C686.665 501.575 688.103 500.608 688.937 499.312C689.772 498.016 690.068 496.435 690.068 494.893C691.255 495.329 692.157 496.291 693.215 496.982C694.273 497.674 695.741 498.068 696.756 497.315C697.941 496.435 697.765 494.616 697.285 493.219C695.857 489.062 692.669 485.443 688.547 483.919C684.423 482.395 679.424 483.178 676.243 486.212" fill="#B1393A"/>
<path d="M655.044 519.556C650.962 513.983 648.668 507.179 648.194 500.287C647.942 496.615 648.362 492.523 651.042 490C653.234 487.937 656.49 487.405 659.488 487.664C662.868 487.956 666.166 489.136 668.963 491.055C673.767 494.351 676.87 499.589 679.242 504.911C680.756 508.312 682.046 511.849 682.57 515.535C683.095 519.221 682.82 523.084 681.311 526.488C679.863 529.759 675.834 534.393 671.79 532.597C670.212 531.896 668.919 530.56 667.406 529.721C665.195 528.496 663.034 527.364 661.04 525.784C658.775 523.989 656.752 521.887 655.044 519.556" fill="#F39718"/>
<path d="M649.364 489.775C646.543 493.879 645.736 499.302 647.24 504.05C647.588 505.146 648.108 506.275 649.092 506.871C650.432 507.683 652.248 507.218 653.436 506.196C654.625 505.175 655.329 503.715 656 502.299C657.479 505.191 660.912 506.944 664.121 506.447C667.332 505.95 670.073 503.239 670.607 500.035C672.084 501.51 673.852 502.692 675.78 503.491C676.469 503.776 677.309 503.999 677.919 503.57C678.683 503.031 678.564 501.874 678.291 500.979C677.072 496.976 674.431 493.451 671.027 491.015C667.624 488.58 663.489 487.224 659.311 486.998C657.348 486.892 655.348 487.034 653.493 487.683C651.637 488.331 649.931 489.519 648.893 491.188" fill="#F1484A"/>
<path d="M693.125 512.367C692.175 505.524 693.384 498.447 696.235 492.155C697.755 488.803 700.067 485.399 703.623 484.45C706.531 483.674 709.648 484.75 712.167 486.4C715.003 488.259 717.347 490.863 718.899 493.879C721.564 499.059 721.811 505.143 721.375 510.952C721.095 514.666 720.552 518.391 719.265 521.884C717.977 525.379 715.904 528.648 712.961 530.93C710.133 533.122 704.388 535.291 701.681 531.791C700.624 530.426 700.12 528.636 699.185 527.179C697.82 525.052 696.455 523.03 695.449 520.694C694.307 518.039 693.524 515.23 693.125 512.367" fill="#F39718"/>
<path d="M692.615 500.588C692.476 501.315 692.376 502.064 692.515 502.791C692.655 503.518 693.067 504.224 693.728 504.555C694.54 504.962 695.557 504.716 696.291 504.182C697.025 503.647 697.537 502.868 698.032 502.107C698.457 504.191 700.251 505.888 702.329 506.338C704.408 506.786 706.671 506.035 708.175 504.531C709.68 503.028 710.429 500.843 710.319 498.719C711.112 499.851 712.059 500.908 713.256 501.599C714.452 502.29 715.931 502.579 717.243 502.142C719.356 501.436 720.511 498.994 720.364 496.771C720.219 494.547 719.051 492.523 717.753 490.711C716.133 488.447 714.228 486.332 711.853 484.879C709.479 483.427 706.583 482.686 703.861 483.276C700.375 484.034 698.932 486.663 697.295 489.502C695.292 492.974 693.377 496.615 692.615 500.588" fill="#F1484A"/>
<path d="M651.982 516.446H772.838C775.883 516.446 777.934 519.563 776.727 522.36L769.568 538.951C768.899 540.503 767.37 541.508 765.679 541.508H658.243C656.48 541.508 654.903 540.418 654.28 538.768L648.018 522.178C646.972 519.407 649.02 516.446 651.982 516.446" fill="#040606"/>
<path d="M829.348 512.025C836.241 509.399 844.864 512.808 848.096 519.439C850.343 513.667 856.115 509.233 862.308 509.271C868.501 509.308 874.485 514.323 874.951 520.5C876.772 518.145 878.727 515.812 881.264 514.255C883.801 512.699 887.045 512.019 889.795 513.159C892.544 514.3 894.439 517.588 893.425 520.387C898.443 518.432 904.24 518.572 909.157 520.768C910.699 521.456 912.192 522.371 913.197 523.727C914.203 525.083 914.64 526.948 913.976 528.5C912.784 531.285 909.071 531.687 906.041 531.667C890.292 531.565 874.541 531.464 858.791 531.363C850.943 531.312 843.095 531.261 835.245 531.211C831.363 531.185 827.4 531.392 823.527 531.135C820.983 530.964 819.979 529.644 819.808 527.156C819.376 520.841 823.411 514.288 829.348 512.025" fill="#B1393A"/>
<path d="M825.204 522.445C826.833 522.053 828.216 521.005 829.532 519.969C830.848 518.932 832.198 517.857 833.809 517.393C835.857 516.803 838.102 517.295 839.974 518.313C841.846 519.333 843.402 520.843 844.866 522.391C845.908 523.492 847.297 524.732 848.732 524.245C849.797 523.885 850.322 522.729 850.886 521.756C852.746 518.54 856.268 516.347 859.974 516.096C863.681 515.845 867.465 517.544 869.742 520.479C870.713 521.731 871.417 523.177 872.45 524.379C873.482 525.579 874.989 526.545 876.561 526.347C878.304 526.127 879.556 524.583 880.44 523.064C881.324 521.545 882.106 519.853 883.585 518.905C885.888 517.429 889.434 518.685 890.294 521.281C890.816 522.853 890.569 524.865 891.886 525.872C893.321 526.968 895.328 525.956 896.982 525.231C901.233 523.368 906.385 523.716 910.346 526.133C911.265 526.693 912.314 527.387 913.328 527.027C914.854 526.481 914.682 524.201 913.812 522.835C912.062 520.085 908.838 518.551 905.612 518.091C902.386 517.631 899.109 518.104 895.885 518.576C896.773 514.008 892.725 509.428 888.105 508.86C883.484 508.292 878.898 511.057 876.306 514.924C873.326 510.228 867.864 507.213 862.304 507.196C856.742 507.179 851.261 510.159 848.252 514.835C844.526 511.264 839.206 509.423 834.072 509.925C829.284 510.395 825.6 512.881 822.056 515.935C818.898 518.655 820.708 523.527 825.204 522.445" fill="#F1484A"/>
<path d="M920.132 535.776H811.294C809.31 535.776 807.7 534.169 807.7 532.183C807.7 530.199 809.31 528.59 811.294 528.59H920.132C922.118 528.59 923.726 530.199 923.726 532.183C923.726 534.169 922.118 535.776 920.132 535.776" fill="#040606"/>
<path d="M905.908 542.036H829.251C825.615 542.036 822.668 539.088 822.668 535.453C822.668 535.119 822.937 534.85 823.271 534.85H911.888C912.221 534.85 912.492 535.119 912.492 535.453C912.492 539.088 909.544 542.036 905.908 542.036Z" fill="#040606"/>
</svg>
